<svg xmlns="http://www.w3.org/2000/svg" version="1.1" xmlns:xlink="http://www.w3.org/1999/xlink" xmlns:svgjs="http://svgjs.dev/svgjs" viewBox="0 0 1422 800" opacity="0.51"><defs><linearGradient x1="50%" y1="0%" x2="50%" y2="100%" id="ssscribble-grad"><stop stop-color="hsl(206, 75%, 49%)" stop-opacity="1" offset="0%"></stop><stop stop-color="hsl(331, 90%, 56%)" stop-opacity="1" offset="100%"></stop></linearGradient></defs><g fill="none" stroke-width="1.25" stroke="url(#ssscribble-grad)" stroke-linecap="round"><path d="M2029.1 479.85C2058.59 502.5 2082.88 524.75 2098.95 546.56 2105.4 568.35 2100.76 589.64 2085.64 610.39 2062.14 631.05 2032.53 651.06 2000.13 670.34 1968.7 689.42 1941.18 707.65 1920.21 724.95 1906.36 749.94 1932.68 793.99 1962.62 812.92 1992.32 830.39 2015.6 860.71 2001 874.49 1980.59 884.18 1953.38 893.99 1921.34 904.25 1886.81 915.94 1851.99 928.72 1819.1 942.98 1790.19 959.44 1766.59 977.92 1749.16 998.72 1738.6 1022.06 1734.28 1047.85 1735.35 1076.05 1741.31 1106.34 1749.99 1138.47 1759.73 1171.98 1769.69 1206.04 1777.48 1240.15 1781.82 1273.46 1782.33 1304.98 1777.6 1334 1767.36 1359.6 1751.98 1381.22 1731.37 1398.19 1706.21 1410.06 1677.34 1417.25 1645.61 1419.52 1612.1 1417.31 1577.66 1412.24 1543.37 1404.68 1510.12 1395.95 1478.47 1388.37 1449.13 1382.63 1422.45 1380.26 1398.71 1383.14 1377.94 1391.57 1359.99 1406.16 1345.01 1427.22 1332.37 1453.91 1321.63 1485.23 1313.01 1519.67 1305.47 1555.24 1298.52 1589.74 1279.22 1656.14 1240.68 1652.81 1222.39 1624.1 1208.89 1604.98 1193.9 1588.83 1177.54 1578.25 1160.41 1575.87 1142.06 1582.19 1122.68 1597.43 1102.69 1621.03 1081.86 1650.67 1060.38 1683.61 1038.48 1716.81 1016.13 1746.57 993.46 1769.64 970.56 1783.93 947.5 1787.53 924.39 1780.11 901.19 1763.36 878.03 1738.92 855 1710 831.95 1681.18 809.08 1655.6 786.43 1636.8 763.78 1627.98 741.61 1629.7 719.92 1641.47 698.21 1662.17 676.92 1688.22 656 1716.02 634.99 1742.53 614.25 1763.44 593.7 1775.99 572.92 1778.99 552.18 1771.2 531.35 1753.36 510.11 1727.59 488.6 1696.13 466.66 1662.18 444.1 1629.25 420.91 1600.16 396.95 1577.33 372.21 1562.8 346.53 1556.89 319.83 1559.23 292.32 1569.24 263.76 1584.34 234.2 1602.04 204.04 1620.47 173.1 1636.21 141.58 1647.02 110.07 1651.78 78.51 1648.7 47.29 1637.5 17.05 1618.84 -12.05 1593.32 -39.51 1562.54 -64.86 1528.38 -87.73 1492.78 -107.66 1457.75 -124.62 1425.12 -138.17 1396.39 -148.12 1372.58 -153.51 1345.79 -158.64 1361.03 -175.7 1356.66 -193.7 1348.58 -216.48 1335.91 -243.74 1318.85 -274.82 1297.88 -308.61 1273.21 -343.76 1245.5 -378.69 1215.31 -411.78 1183.38 -441.32 1150.47 -465.98 1116.95 -484.43 1083.66 -495.79 1051.14 -500.29 1019.53 -497.77 989.42 -489.06 961.01 -476.38 934.31 -460.89 909.48 -444.79 886.45 -431.18 865.24 -421.51 845.61 -417.7 827.31 -421.65 810.51 -433.43 794.63 -452.91 779.39 -479.34 765.17 -510.63 751.18 -544.35 737.18 -577.88 723.74 -608.08 709.97 -632.18 695.72 -648.38 681.7 -654.95 667 -651.45 651.53 -639.22 636.12 -619.41 619.84 -594.61 602.67 -568.85 585.49 -544.81 567.39 -525.8 548.36 -515.15 529.32 -513.91 509.37 -522.62 488.51 -540.96 467.64 -566.4 445.88 -595.89 423.23 -626.09 400.57 -652.43 377.3 -671.59 353.43 -681.79 329.54 -681.09 305.05 -669.59 279.97 -648.99 254.88 -621.2 229.18 -589.34 202.91 -557.13 176.64 -527.63 149.82 -503.72 122.51 -487.91 95.26 -480.95 67.62 -482.85 39.7 -493.22 12.02 -509.61 -15.74 -529.45 -43.4 -550.65 -70.5 -569.58 -97.17 -583.65 -123.15 -591.48 -148.12 -591.02 -171.99 -581.83 -194.44 -564.61 -215.4 -539.99 -234.53 -509.71 -251.58 -475.99 -266.81 -440.96 -279.72 -406.91 -290.21 -376 -298.99 -349.76 -305.53 -329.31 -310.01 -326.92 -326.38 -352.61 -375.77 -343.91 -408.31 -331.3 -435.14 -313.31 -465.29 -290.49 -498.15 -263.62 -532.72 -233.4 -567.99 -200.86 -602.7 -166.86 -635.46 -132.46 -665.04 -98.59 -690.14 -65.85 -709.99 -35.05 -723.71 -6.64 -730.91 19.07 -732.3 41.92 -727.97 61.96 -718.93 103.53 -686.21 143.24 -687.79 153.55 -719.11 160.28 -748.35 167.89 -781.62 176.58 -816.65 185.68 -850.96 196.15 -881.74 208.03 -906.47 227.64 -927.46 274.86 -910.96 302 -880.17 321.06 -857.01 341.02 -835.33 361.72 -818.3 382.84 -809.2 404.51 -809.12 426.59 -818.74 448.91 -837.93 471.49 -864.42 494.22 -895.41 517.05 -927.68 539.92 -957.13 562.76 -980.1 585.62 -994.14 608.4 -997.01 631.05 -988.2 653.7 -969.4 675.96 -942.68 697.84 -911.59 719.74 -880.39 741.31 -852.56 762.61 -831.33 784 -819.42 805.22 -817.45 826.35 -825.1 847.72 -841.53 869.14 -863.58 890.75 -888.04 912.76 -912.24 935.14 -932.1 958.03 -944.91 981.5 -949.37 1005.67 -943.89 1030.64 -928.73 1056.34 -905.37 1082.97 -875.45 1110.59 -841.61 1138.91 -806.86 1168.18 -773.84 1198.34 -745.04 1228.9 -722.63 1260.06 -707.58 1291.59 -700.21 1322.87 -700.67 1353.93 -707.32 1384.37 -718.42 1413.58 -732.71 1441.38 -747.2 1467.26 -759.72 1490.85 -769.12 1511.77 -773.04 1529.61 -770.52 1544.49 -761.52 1555.96 -745.55 1563.93 -723.23 1569.2 -695.67 1571.47 -663.95 1571.14 -629.62 1569.68 -594.15 1567.04 -559.07 1564.12 -525.76 1562.66 -495.3 1562.84 -468.58 1565.65 -446.08 1572.52 -428.26 1583.51 -414.83 1599.14 -405.37 1619.82 -399.9 1645.07 -397.16 1674.42 -396.27 1707.02 -397.17 1741.67 -398.21 1776.91 -398.58 1811.15 -398.4 1842.77 -396.22 1870.13 -391.6 1899.79 -380.03 1914.54 -338.06 1901.25 -308.24 1887.42 -285.31 1871.72 -260.36 1856.43 -233.79 1844.58 -205.8 1837.49 -176.84 1836.87 -147.28 1844.28 -117.07 1859.5 -86.78 1882.05 -56.67 1910.83 -26.48 1943.52 3.21 1977.52 32.31 2010.14 61.17 2038.32 89.32 2059.49 116.74 2072.18 143.82 2075.01 170.2 2067.94 195.92 2052.78 221.34 2030.98 246.2 2005.41 270.57 1980.19 294.74 1957.97 318.52 1941.85 342 1934.83 365.37 1937.51 388.51 1949.98 411.47 1971.4 434.4 1998.89 457.19 2029.09 479.84Q2029.1 479.85 2029.1 479.85" opacity="0.14"></path><path d="M1976.6 431.08C2004.97 452.83 2028.65 473.74 2044.92 493.82 2052.5 513.88 2049.88 533.1 2037.39 551.45 2016.74 569.77 1989.67 587.21 1959.01 603.76 1928.07 620.27 1899.54 635.9 1876.01 650.66 1855.65 672.4 1866.64 712.34 1891.69 731.03 1911.89 743.76 1931 756.31 1946.62 768.87 1957.38 782.27 1961.09 796.07 1956.98 810.54 1945.31 826.32 1926.16 843.19 1900.72 861.4 1870.73 881.34 1837.86 902.92 1804.17 926.3 1771.65 951.5 1741.98 978.49 1716.51 1007.21 1696.46 1037.25 1682.13 1068.52 1673.5 1100.63 1670.66 1132.87 1672.34 1164.95 1677.41 1196.21 1685.3 1225.86 1693.94 1253.42 1701.94 1278.15 1707.61 1325.49 1657.96 1341.7 1621.35 1332.61 1592.82 1325.92 1562.13 1319.65 1530.11 1315.08 1497.35 1314.1 1464.76 1317.06 1432.97 1324.85 1402.35 1338.39 1373.51 1357.37 1346.71 1381.56 1322.13 1410.34 1299.87 1442.43 1279.84 1476.34 1262.17 1510.35 1246.47 1542.54 1232.44 1571.01 1200.06 1610.65 1158.79 1578.65 1144.46 1550.88 1129.31 1530.13 1093.65 1530.95 1072.95 1557.11 1058.47 1583.71 1042.97 1614.47 1026.5 1646.64 1009.76 1677.49 992.15 1703.79 973.75 1722.9 955.18 1733.33 935.93 1733.7 916.08 1724.04 896.14 1706.24 875.68 1681.86 854.76 1653.87 833.82 1626.4 812.46 1602.19 790.71 1584.3 768.97 1575.62 747.09 1576.63 725.08 1586.96 703.05 1605.77 680.84 1629.98 658.42 1656.46 635.92 1682.59 613.12 1704.43 589.99 1719.29 566.67 1725.88 542.9 1722.62 518.63 1709.71 494.09 1688.64 468.95 1660.96 443.17 1629.29 417.07 1596.68 390.28 1565.74 362.83 1539 335.12 1518.72 306.82 1505.87 278.01 1500.82 249.19 1503.72 220.12 1512.92 190.98 1526.65 162.32 1543.53 134.03 1560.51 106.44 1575.33 79.99 1586.71 54.8 1592.29 31.26 1591.05 9.59 1582.96 -9.88 1567.6 -26.85 1545.7 -41.47 1518.53 -53.3 1487.3 -62.23 1453.73 -68.95 1419.52 -73.05 1386.28 -74.77 1355.47 -73.36 1294.17 -80.84 1265.42 -95.16 1270.81 -110.22 1275.9 -129.39 1280.24 -152.67 1282.91 -179.8 1283.87 -210.06 1281.74 -242.6 1276.13 -276.27 1267.33 -309.86 1254.7 -341.94 1238.4 -371.19 1218.9 -396.31 1196.27 -416.11 1171.01 -430.12 1143.54 -437.65 1114.39 -438.64 1084.13 -434.23 1052.99 -424.78 1021.64 -411.66 990.51 -397.37 959.63 -383.06 929.58 -370.77 900.56 -363.02 872.47 -360.7 845.65 -364.97 820.11 -376.8 795.73 -395.56 772.57 -420.46 750.51 -450.2 729.52 -482.53 709.41 -515 690 -545.27 671.42 -570.69 653.27 -589.11 635.36 -599.46 618.02 -600.64 600.68 -592.78 583.2 -577.64 566.04 -556.51 548.57 -531.94 530.66 -507.65 512.91 -485.93 494.62 -469.59 475.71 -461.4 456.87 -462.04 437.34 -471.79 417.09 -490.24 396.86 -515.02 375.88 -543.39 354.13 -572.42 332.38 -597.99 310.13 -617.14 287.42 -628.26 264.71 -629.42 241.57 -620.51 218.06 -602.87 194.61 -577.88 170.86 -548.17 146.89 -516.98 123.09 -487.02 99.19 -461.07 75.34 -441.67 51.81 -429.93 28.5 -426.37 5.59 -431.21 -16.76 -442.76 -38.48 -459.1 -59.35 -478.68 -79.4 -498.24 -98.33 -515.32 -115.94 -531.73 -139.97 -517.83 -178.12 -486.9 -191.95 -458.77 -199.65 -426.91 -205.83 -393.33 -210.66 -360.03 -215.24 -328.76 -219.07 -301.08 -222.57 -269.67 -229.41 -243.38 -251.34 -246.15 -269.34 -252.74 -285.38 -260.77 -304.48 -268.86 -326.8 -276.48 -352.3 -281.69 -380.66 -283.53 -411.45 -281.92 -443.95 -275.72 -477.48 -264.79 -511.07 -249.55 -543.61 -229.86 -574.14 -206.3 -601.55 -179.5 -624.99 -150.09 -643.6 -118.91 -656.74 -86.55 -664.58 -53.89 -666.84 -21.63 -663.88 9.84 -657.26 39.87 -647.45 68.09 -635.88 94.33 -624.95 118.36 -615.59 140.19 -609.45 159.73 -608.6 177.22 -613.47 192.94 -624.78 206.7 -642.93 219.16 -667.07 230.67 -696.14 240.87 -728.66 250.66 -762.48 260.35 -795.29 288.95 -856.3 338.68 -843.43 358.76 -811.37 372.75 -790.05 387.75 -771.76 403.74 -759.08 419.95 -754.56 437.07 -758.7 455.02 -771.66 473.14 -792.89 491.99 -820.08 511.51 -850.51 531.12 -881.29 551.32 -908.75 572.06 -929.74 592.83 -942.26 614.1 -944.37 635.84 -935.7 657.59 -917.81 679.56 -892.5 701.74 -862.86 723.95 -832.68 746.41 -805.05 769.17 -782.94 792 -768.98 815.19 -764 838.79 -768.05 862.55 -780.78 886.81 -799.69 911.6 -822.14 936.63 -845.92 962.27 -867.29 988.54 -883.54 1015.07 -893.18 1042.24 -894.17 1070.01 -886.07 1097.94 -869.66 1126.36 -845.73 1155.17 -816.2 1183.83 -783.53 1212.6 -750.02 1241.23 -718.12 1269.24 -690.14 1296.66 -667.62 1323.18 -651.6 1348.4 -642.9 1372.17 -640.94 1394.11 -644.82 1414.11 -653.89 1431.79 -665.85 1446.9 -678.81 1474.27 -702.08 1485.74 -667.12 1484.03 -629.46 1483.97 -599.22 1485.05 -566.54 1488.08 -532.73 1494.35 -498.91 1503.85 -466.31 1517.1 -435.86 1534.68 -408.31 1556.29 -384.2 1581.8 -363.76 1610.76 -347.3 1642.37 -334.44 1675.67 -324.78 1709.44 -318.4 1742.41 -314.21 1773.19 -311.53 1837.31 -298.61 1801.68 -255.22 1784.59 -231.11 1779.4 -212.6 1780.14 -192.25 1787.75 -170.35 1802.83 -147.13 1824.53 -122.78 1851.75 -97.58 1882.95 -71.55 1915.73 -45.06 1947.58 -18.34 1976.2 8.8 1999.07 35.9 2014.28 62.8 2021.08 89.85 2018.73 116.54 2007.72 142.78 1990.17 169.04 1967.61 194.79 1942.79 219.98 1919.45 245.15 1899.82 269.75 1886.47 293.79 1881.86 317.79 1886.27 341.25 1899.56 364.13 1920.89 387 1947.56 409.32 1976.59 431.07Q1976.6 431.08 1976.6 431.08" opacity="1.00"></path><path d="M1924.1 361.32C1951.35 382.16 1974.37 402.23 1990.75 421.55 1999.32 440.88 1998.57 459.48 1988.62 477.38 1970.8 495.32 1946.43 512.62 1917.85 529.34 1887.94 546.18 1859.09 562.53 1833.75 578.49 1807.89 602.71 1803.52 651.18 1822.15 676.17 1839.98 693.67 1858.74 711.71 1876.2 730.47 1891 750.24 1900.71 770.97 1904.09 792.82 1900.89 815.84 1890.42 840.09 1873.12 865.64 1850.11 892.26 1822.38 920.07 1791.54 948.94 1759.32 978.4 1727.32 1008.48 1697.11 1038.86 1670.12 1068.9 1647.27 1098.46 1629.2 1127.03 1616.5 1154.01 1608.8 1179.08 1605.62 1201.68 1628.43 1256.52 1578.41 1246.06 1543.05 1250.41 1516.06 1259.19 1487.22 1272.57 1457.2 1290.76 1426.37 1313.72 1395.46 1340.71 1364.98 1370.88 1335.12 1403.07 1306.45 1435.87 1279.19 1467.69 1253.42 1497.02 1229.36 1522.29 1206.99 1542.15 1186.35 1555.92 1167.3 1562.8 1149.67 1562.64 1133.57 1556.55 1118.55 1544.99 1104.38 1529.41 1085.05 1503.89 1048.85 1468 1030.92 1468.22 1019.22 1478.52 1007.01 1495.96 994.19 1519.6 981.49 1548.03 968.05 1578.79 953.81 1609.31 939.59 1637.21 924.52 1659.76 908.62 1674.87 892.68 1681.61 875.9 1679.02 858.29 1667.45 840.65 1648.85 822.19 1624.72 802.93 1597.74 783.67 1571.66 763.61 1548.78 742.77 1531.8 721.93 1523.28 700.55 1523.63 678.66 1532.59 656.75 1549.55 634.32 1571.87 611.37 1596.87 588.39 1622.34 564.87 1644.68 540.84 1661.36 516.77 1671.07 492.18 1671.98 467.11 1663.88 442.04 1647.71 416.52 1624.41 390.65 1595.99 364.89 1565.03 338.88 1533.8 312.78 1504.73 287.01 1480.12 261.36 1461.36 236.04 1449.37 211.41 1444.88 187.43 1447.09 164.36 1454.96 142.41 1467.69 121.76 1482.82 102.67 1498.38 77.27 1518.86 39.18 1530.12 26.93 1515.95 20.99 1498.39 16.99 1475.28 14.73 1447.76 13.09 1417.13 12.43 1384.72 12.27 1351.98 11.3 1320.21 9.72 1290.6 6.89 1264.1 1.62 1241.49 -5.98 1223.08 -16.46 1208.94 -30.53 1199.29 -48 1193.41 -68.99 1190.65 -93.43 1190.95 -120.86 1192.88 -150.74 1195.58 -182.26 1199 -214.56 1201.59 -246.57 1202.67 -277.15 1202.39 -305.2 1199.54 -329.59 1193.86 -356.97 1180.04 -376.02 1133.38 -368.25 1101.68 -358.21 1077.77 -345.6 1052.19 -331.97 1025.35 -319.72 997.39 -309.77 968.83 -303.72 940.02 -303.38 910.91 -309.03 882.02 -321.12 853.59 -339.77 825.41 -363.9 797.94 -392.25 771.25 -423.25 745.08 -454.67 719.76 -484.26 695.25 -510.1 671.32 -530.06 648.12 -542.6 625.57 -547.32 603.51 -543.66 581.96 -532.17 560.82 -514.87 540.02 -493.11 519.48 -469.32 499.09 -446.84 478.92 -427.59 458.77 -413.9 438.58 -408.07 418.48 -410.44 398.24 -421.09 377.84 -439.56 357.45 -463.64 336.84 -490.89 316 -518.74 295.16 -543.51 274.34 -562.56 253.56 -574.46 232.81 -577.32 212.15 -570.87 191.66 -556.12 171.26 -534.05 151.11 -506.79 131.32 -477.11 111.73 -447.38 92.62 -420.18 74.11 -397.97 55.95 -382.11 38.55 -373.49 22.02 -372.77 5.99 -378.96 -9.01 -390.79 -22.89 -407.22 -36.19 -425.52 -48.28 -443.5 -59.1 -469.87 -85.72 -422.76 -116.43 -380.29 -125.77 -348.54 -133.15 -316.19 -141.29 -284.88 -150.58 -256.12 -161.86 -230.99 -174.94 -210.3 -190.15 -194.77 -207.96 -184.29 -228.23 -178.52 -251.05 -177.46 -276.36 -179.8 -303.94 -184.51 -333.48 -191.24 -364.37 -198.17 -396.18 -204.23 -428.18 -209.2 -459.48 -211.48 -489.38 -210.48 -516.99 -206.31 -541.55 -198.1 -562.33 -185.88 -578.67 -170.06 -590.51 -150.56 -597.42 -127.87 -599.42 -102.48 -597.53 -74.89 -591.83 -45.75 -583.24 -15.44 -573.68 15.3 -563.72 45.98 -554.79 76.35 -548.96 105.82 -546.8 134.09 -549.41 161.1 -557.94 186.54 -572.25 210.36 -592.25 232.55 -617.51 253.15 -646.73 272.29 -678.45 289.9 -710.97 306.32 -742.23 321.78 -770.24 342.89 -801.7 381.79 -817.58 400.65 -801.69 412.86 -784.38 425.45 -764 438.55 -742.97 458.26 -717.33 501.14 -705.98 524.53 -725.79 540.4 -748.58 557.11 -776.05 574.65 -805.64 592.2 -834.76 610.58 -860.2 629.79 -879.25 649 -890.3 669.03 -891.71 689.87 -883.2 710.71 -866.22 732.11 -842.29 754.06 -814.12 776.02 -785.06 798.53 -757.8 821.56 -735.08 844.62 -719.38 868.21 -711.66 892.31 -712.29 916.41 -721.29 941.01 -736.75 966.06 -756.6 991.06 -779.08 1016.43 -800.84 1042.09 -819.35 1067.57 -833.06 1093.19 -839.65 1118.8 -838.19 1143.98 -828.89 1168.91 -811.77 1193.38 -788.03 1217.06 -759.55 1239.96 -728.08 1261.8 -695.81 1282.46 -664.95 1301.71 -637.25 1319.29 -614.2 1387.07 -622.16 1402.44 -634.2 1408.29 -613.11 1415.41 -592.6 1425.13 -567.81 1437.89 -539.68 1454.26 -509.12 1474.03 -477.14 1497.17 -444.8 1523.48 -412.9 1552.43 -382.36 1583.37 -353.87 1615.42 -327.92 1647.67 -304.89 1679.01 -284.9 1708.32 -268.17 1734.57 -254.39 1756.69 -243.24 1751.24 -205.09 1727.82 -166 1747.41 -147.2 1768.82 -132.93 1795.14 -117.1 1824.93 -99.88 1856.46 -81.66 1887.43 -62.28 1915.62 -41.97 1939.21 -20.92 1956.25 0.81 1965.47 23.03 1966.78 45.73 1959.92 68.7 1945.75 91.77 1926.59 115.12 1903.96 138.42 1880.39 161.55 1859.23 184.81 1842.28 207.8 1831.65 230.45 1829.32 253.14 1835.29 275.43 1849.27 297.27 1870.41 319.11 1896.24 340.47 1924.09 361.31Q1924.1 361.32 1924.1 361.32" opacity="0.42"></path><path d="M1871.6 317.67C1897.71 337.61 1920.05 357.25 1936.45 376.62 1945.88 396.01 1946.84 415.16 1939.29 434.11 1924.27 453.15 1902.69 472.07 1876.47 490.95 1848.08 510.01 1819.57 529.15 1793.2 548.45 1771.18 568.07 1754.75 588.01 1744.81 608.37 1742.09 629.19 1745.86 650.58 1755.17 672.63 1769.31 695.26 1785.97 718.66 1803.24 742.88 1819.95 767.69 1833.62 793.33 1842.8 819.75 1846.93 846.59 1844.72 874.05 1836.01 901.97 1821.34 929.88 1800.99 957.87 1775.98 985.66 1747.67 1012.72 1717.28 1039.01 1686.27 1064.12 1656.06 1087.65 1627.83 1109.37 1602.6 1128.87 1555.13 1180.77 1566.93 1174.88 1562.16 1177.73 1555.03 1184.26 1544.42 1194.49 1530.44 1208.77 1513.51 1227.41 1493.63 1249.94 1471.23 1275.97 1446.69 1304.82 1420.43 1335.5 1392.94 1366.88 1364.48 1397.71 1335.61 1426.66 1306.74 1452.4 1277.95 1473.92 1249.75 1490.15 1222.38 1500.36 1195.8 1504.7 1170.33 1502.91 1146.03 1495.5 1122.82 1484.11 1100.8 1469.45 1079.89 1453.16 1060.06 1437.71 1041.19 1424.24 1023.12 1414.48 1005.95 1410.41 989.35 1412.46 973.16 1421.18 957.61 1436.81 942.24 1458.28 926.89 1484.33 911.95 1513.39 896.85 1543.12 881.46 1571.22 866.31 1595.7 850.74 1614.32 834.68 1625.5 818.72 1628.77 802.19 1623.54 785.03 1610.36 767.91 1591.23 750.12 1567.5 731.63 1541.63 713.14 1516.94 693.94 1495.39 674.01 1479.3 654.07 1470.96 633.65 1470.7 612.76 1478.35 591.88 1493.52 570.56 1513.93 548.85 1537.32 527.18 1561.85 505.17 1584.29 482.89 1602.31 460.72 1614.61 438.36 1619.26 415.92 1615.69 393.71 1604.45 371.55 1585.9 349.59 1561.52 328.03 1533.37 306.86 1503.3 286.24 1473.51 266.27 1446.22 247.08 1422.98 228.87 1405.06 203.51 1391.07 161.05 1401.53 144.55 1420.09 113.74 1456.36 96.2 1395.21 89.12 1352.41 81.88 1321.47 72.66 1290.15 61.07 1259.56 46.53 1230.64 29.2 1204.23 8.98 1180.88 -14.13 1161.12 -39.81 1145.01 -67.72 1132.46 -97.25 1123.64 -127.81 1117.82 -158.62 1114.45 -188.73 1113.57 -217.33 1113.96 -243.47 1114.94 -298.91 1106.92 -271.65 1059.71 -255.2 1033.83 -247.97 1014.19 -244.63 992.92 -246.18 970.31 -253.69 946.52 -266.91 921.84 -285.65 896.57 -309.45 870.65 -336.91 844.5 -366.57 818.34 -396.8 791.95 -425.57 765.8 -450.96 740.01 -471.52 714.25 -485.68 688.96 -492.45 664.21 -492 639.6 -484.18 615.55 -469.86 592.05 -451.18 568.7 -429.45 545.87 -406.9 523.54 -386.52 501.33 -369.85 479.55 -358.77 458.19 -355.16 436.89 -359.11 415.95 -370.54 395.36 -388.93 374.78 -412.27 354.52 -438.39 334.58 -465.06 314.65 -488.99 295.28 -507.86 276.48 -520.4 257.71 -524.79 239.54 -520.64 222.01 -508.71 204.54 -489.6 187.78 -465.01 171.76 -437.28 155.85 -408.42 140.75 -380.74 126.5 -346.97 105.81 -318.62 69.12 -325.62 53.09 -337.72 42.71 -353.13 33.08 -370.03 24.09 -407.59 -3.05 -394.43 -48.18 -362.67 -67.23 -335.88 -82.03 -306.34 -98.39 -275.46 -116.5 -244.66 -136.61 -215.21 -158.62 -188.22 -182.57 -164.69 -208.29 -145.15 -235.65 -129.9 -264.4 -119.32 -294.01 -112.88 -324.19 -110.1 -354.4 -110.89 -383.91 -113.95 -412.25 -118.38 -438.72 -128.13 -512.8 -84.74 -511.66 -55.14 -498.66 -32.18 -491.41 -7.23 -486.13 19.22 -483.92 46.93 -486.21 75.34 -493.14 104.03 -505.15 132.9 -522.55 161.42 -544.69 189.32 -570.9 216.64 -600.2 242.99 -631.13 268.28 -662.09 292.6 -691.52 315.78 -717.67 337.87 -738.98 358.92 -754.53 379 -763.25 398.21 -764.75 416.53 -759.8 434.21 -748.67 451.38 -732.63 467.89 -714.09 484.13 -694.41 500.25 -675.75 523.79 -655.89 571.26 -657.2 595.68 -681.05 611.97 -704.92 628.77 -732.26 646.14 -760.73 663.45 -788.07 681.39 -811.46 699.97 -828.62 718.55 -838.28 737.79 -839.03 757.73 -830.7 777.66 -814.61 798.04 -792.05 818.84 -765.37 839.63 -737.5 860.81 -710.79 882.32 -687.71 903.78 -670.59 925.52 -660.45 947.47 -657.88 969.28 -663.21 991.21 -675.05 1013.13 -691.83 1034.8 -712.23 1056.31 -733.36 1077.55 -752.93 1098.34 -769.48 1118.65 -780.57 1138.3 -784.95 1157.29 -782.43 1175.4 -772.37 1192.46 -755.34 1208.63 -732.63 1223.53 -705.36 1237.02 -675.31 1249.48 -644.4 1260.42 -614.31 1269.76 -586.7 1307.74 -549.89 1341.55 -578.79 1360.81 -573.72 1377.43 -564.47 1396.83 -550.49 1419.03 -532.16 1443.88 -510.08 1471.04 -484.73 1500.05 -456.89 1530.26 -427.27 1561.02 -396.72 1591.5 -366.04 1620.79 -335.78 1648.06 -306.7 1672.39 -279.28 1693.14 -253.85 1709.58 -230.74 1721.17 -210.04 1729.06 -184.07 1716.32 -146.67 1700.11 -133.68 1673.03 -115.95 1685.67 -90.42 1715.03 -79.39 1740.83 -71.27 1769.62 -61.93 1799.78 -51.36 1829.63 -40.2 1857.16 -27.81 1880.51 -14.28 1903.95 7.4 1904.1 56.27 1882.32 82.9 1862.33 101.19 1840.25 119.98 1818.37 139.15 1799.62 158.51 1785.41 178.13 1777.42 197.92 1777.21 217.8 1784.58 237.76 1799.11 257.74 1819.97 277.74 1844.92 297.73 1871.59 317.66Q1871.6 317.67 1871.6 317.67" opacity="0.83"></path><path d="M1819.1 329.61C1844.08 348.64 1865.68 367.92 1882.01 387.46 1892.16 407.02 1894.68 426.86 1889.39 447 1877.08 467.19 1858.35 487.75 1834.71 508.68 1808.25 529.73 1780.68 551.22 1754.03 573.19 1730.36 595.33 1710.96 617.99 1696.93 641.19 1689.26 664.57 1687.69 688.5 1691.8 712.94 1701.29 737.5 1714.42 762.49 1729.7 787.84 1746.18 813.1 1761.6 838.52 1774.47 863.93 1784.09 888.9 1788.83 913.55 1788.06 937.62 1781.91 960.77 1769.98 982.92 1752.73 1003.79 1731.07 1023.2 1705.69 1040.91 1677.73 1056.65 1648.4 1070.51 1618.82 1082.14 1590.11 1091.39 1563.29 1098.73 1539.15 1103.75 1518.27 1106.54 1482.29 1108.97 1489.23 1157.85 1483.97 1190.49 1477.32 1216.23 1467.82 1244.2 1455.54 1273.63 1440.87 1303.57 1423.7 1333.02 1404.31 1360.87 1383.03 1386.13 1360.08 1407.75 1335.83 1424.84 1310.45 1437.07 1284.35 1443.81 1257.88 1444.96 1231.01 1441.34 1204.23 1433.09 1177.76 1421.12 1151.45 1407.32 1125.72 1392.47 1100.67 1378.1 1076.11 1366.39 1052.33 1358.1 1029.32 1354.47 1006.9 1356.82 985.23 1365.09 964.23 1379.3 943.77 1399.17 923.88 1423.41 904.46 1450.58 885.47 1479.13 866.81 1506.93 848.38 1531.98 830.25 1552.7 812.22 1567.34 794.21 1574.73 776.36 1574.82 758.43 1567.28 740.36 1552.82 722.36 1533.39 704.15 1510.24 685.68 1485.55 667.24 1462.26 648.51 1442.01 629.48 1426.8 610.45 1418.65 591.35 1417.84 572.22 1424.26 553.1 1437.68 533.98 1456.18 514.91 1477.85 495.92 1501.21 477.06 1523.38 458.41 1542.25 439.92 1556.61 421.75 1564.47 404 1565.06 386.54 1558.58 369.63 1544.95 353.4 1525.13 337.59 1500.71 322.6 1473.1 308.53 1444.16 295 1415.89 282.52 1389.85 271.17 1367.48 228.5 1350.92 199.73 1398.87 192.46 1409.18 182.96 1409.22 155.71 1377 136.25 1346.09 120.23 1320.89 101.97 1293.19 81.39 1263.99 58.54 1234.15 33.63 1204.61 6.94 1176.18 -21.07 1149.52 -50 1125.2 -79.26 1103.59 -108.1 1085.04 -135.94 1069.53 -162.01 1056.94 -228.39 1029.34 -194.65 1010.72 -186.12 998.23 -185.85 987.94 -190.16 975.81 -199.48 962 -214.2 946.88 -233.67 930.26 -257.24 912.36 -284.05 893.41 -312.64 873.45 -341.49 852.71 -369.13 831.23 -393.82 809.23 -414.05 786.9 -428.9 764.13 -437.25 741.25 -438.64 718.39 -433.67 695.3 -422.49 672.38 -406.16 649.73 -386.85 626.98 -365.75 604.57 -344.87 582.58 -326.81 560.55 -312.76 538.96 -304.22 517.86 -302.69 496.75 -308.05 476.13 -320.11 456.03 -338.34 435.94 -360.91 416.36 -385.89 397.33 -411.37 378.3 -434.44 360.05 -453.04 342.56 -466.08 325.08 -471.83 308.36 -469.82 292.41 -460.58 276.45 -444.43 261.24 -422.68 246.77 -397.27 232.28 -369.84 218.48 -342.42 205.34 -317.15 192.11 -295.46 179.46 -278.66 167.32 -265.6 148.96 -277.15 112.93 -296.88 94.55 -312.97 81.53 -328.79 68.1 -342.78 54.08 -354.2 39.01 -361.24 23.06 -363.11 6.05 -359.78 -12.26 -350.64 -31.84 -335.99 -52.78 -316.6 -75.09 -293.01 -98.77 -266.27 -123.78 -237.55 -149.86 -207.95 -176.97 -178.61 -204.88 -150.6 -233.09 -124.8 -261.46 -101.89 -289.56 -82.53 -316.78 -66.88 -342.85 -54.95 -367.21 -49.93 -436 -11.8 -421.34 13.57 -429.29 33.27 -440.65 54.82 -456.47 77.88 -476.58 102.25 -500.63 127.55 -527.68 153.45 -556.72 179.94 -586.56 206.55 -615.78 233.03 -642.93 259.51 -666.8 285.56 -686.06 311.05 -699.68 336.18 -707.4 360.6 -708.69 384.3 -703.71 407.49 -693.71 429.96 -679.23 451.74 -661.7 473.02 -643.5 493.71 -625.8 513.88 -610.44 533.65 -599.69 553.02 -594.27 572.09 -595.13 590.88 -603.06 609.49 -617.39 627.99 -637.32 646.33 -661.77 664.68 -688.62 683.08 -715.74 701.41 -741.18 719.88 -762.52 738.51 -777.85 757.12 -786.18 775.94 -786.34 794.96 -778.2 813.99 -762.99 833 -741.78 851.98 -716.59 870.93 -689.98 889.8 -663.99 908.53 -640.8 927.19 -622.57 945.64 -610.35 963.79 -604.85 981.79 -606.67 999.38 -614.83 1016.48 -628.21 1033.3 -645.91 1049.49 -665.49 1064.95 -684.98 1087.1 -710.25 1126.03 -728.38 1142.45 -716.72 1152.53 -700.73 1161.49 -679.27 1169.34 -653.61 1176.83 -625.3 1183.35 -595.72 1188.99 -566.44 1194.64 -538.99 1199.73 -514.5 1204.49 -493.9 1222.61 -466.72 1264.76 -480.05 1287 -493.3 1304.87 -501.56 1324.95 -507.7 1347.23 -510.98 1371.58 -511.36 1397.76 -507.84 1425.43 -500.28 1454.06 -489 1483.21 -473.77 1512.26 -454.99 1540.47 -433.16 1567.24 -408.69 1591.82 -382.22 1613.63 -354.25 1632.04 -325.47 1646.52 -296.48 1657.06 -267.66 1663.24 -239.61 1665.04 -212.74 1663.3 -187.23 1658 -163.43 1649.8 -141.44 1640.28 -121.36 1629.8 -103.16 1619.5 -86.72 1608.23 -65.6 1608.74 -32.08 1624.44 -18.32 1641.79 -10.26 1663.55 -2.34 1688.91 5.65 1716.86 13.21 1745.85 21.18 1774.3 29.69 1800.78 38.12 1823.59 47.28 1841.34 57.25 1855.95 72.8 1842.44 108.6 1817.78 128.8 1797.7 142.72 1776.74 157.43 1756.91 172.87 1740.73 188.44 1729.26 204.68 1723.79 221.54 1725.53 238.47 1734.13 255.96 1749.07 273.99 1769.57 292.03 1793.61 310.57 1819.09 329.6Q1819.1 329.61 1819.1 329.61" opacity="0.67"></path><path d="M1766.6 389.07C1790.43 407.19 1811.27 425.83 1827.44 444.96 1838.18 464.1 1842.09 483.73 1838.89 503.83 1829.2 523.93 1813.31 544.51 1792.41 565.52 1768.22 586.53 1742.13 607.96 1715.9 629.75 1691.41 651.49 1669.91 673.55 1652.59 695.84 1640.58 717.97 1634 740.22 1632.83 762.48 1637.14 784.39 1645.73 806.13 1657.53 827.53 1671.9 848.33 1686.9 868.55 1701.17 887.98 1718.88 915.24 1728.93 961.92 1718.23 980.49 1704.72 990.96 1686.67 999.66 1664.81 1006.52 1640.02 1012.15 1613.12 1016.08 1585.1 1018.44 1556.9 1020.06 1529.43 1020.57 1503.48 1020.24 1469.26 1020.03 1420.47 1023.15 1406.45 1029.15 1399.92 1041.03 1399.85 1082.5 1403.16 1112.61 1405.91 1136.2 1407.96 1161.93 1408.87 1189.27 1408.91 1217.53 1407.15 1245.98 1403.37 1273.77 1397.96 1300.03 1390.29 1323.93 1380.39 1344.6 1368.66 1361.53 1354.81 1374.05 1339.04 1381.74 1321.66 1384.91 1302.69 1383.35 1282.4 1377.41 1260.94 1368.37 1238.56 1356.56 1215.52 1343.08 1191.79 1329.81 1167.75 1317.39 1143.6 1307.11 1119.18 1300.68 1094.9 1298.5 1070.88 1301.29 1046.87 1309.76 1023.26 1323.48 1000.11 1342.06 977.12 1364.88 954.63 1390.55 932.65 1417.6 910.87 1444.61 889.57 1469.71 868.75 1491.22 848.1 1508.02 827.87 1518.71 808.02 1522.55 788.29 1519.78 768.88 1510.28 749.77 1494.85 730.72 1475.37 711.92 1452.95 693.36 1429.49 674.82 1407.61 656.48 1388.65 638.36 1374.3 620.23 1366.37 602.54 1365.06 585.3 1370.32 568.07 1382.06 551.31 1398.65 535.06 1418.53 518.87 1440.51 503.24 1462.06 488.21 1481.32 466.18 1502.44 425.89 1505.54 407.83 1486.18 396.26 1466.17 385.53 1442.07 375.64 1415.36 365.91 1387.78 356.99 1360.72 348.83 1335.63 309.91 1288.28 266.78 1319.77 250.12 1335.37 237.02 1343.2 222.46 1347.59 206.27 1348 188.23 1344.49 168.45 1336.46 146.92 1324.04 123.74 1307.74 99.05 1287.73 73.08 1264.67 46.24 1239.24 18.79 1212.11 -8.82 1184.08 -35.99 1155.77 -62.31 1127.93 -87.2 1101.15 -110.11 1075.89 -130.55 1052.59 -147.99 1031.5 -172.41 966.6 -142.74 937.67 -131.15 933.8 -126.23 929.78 -141.5 916.84 -163.54 907.06 -183.92 899.38 -207.64 890.35 -233.79 880 -261.34 868.84 -288.88 856.43 -315.03 842.88 -338.6 828.6 -358.2 813.34 -372.74 797.23 -381.8 780.54 -384.66 763.19 -381.28 745.32 -372.59 727.04 -358.92 708.4 -341.42 689.52 -322.18 670.39 -302.26 651.15 -283.38 631.91 -267.79 612.53 -256.36 593.23 -250.25 574.09 -250.64 554.89 -257.26 535.9 -269.81 517.18 -287.8 498.44 -309.56 480 -333.39 461.88 -357.68 443.76 -379.85 426.17 -398.11 409.11 -414.98 383.76 -405.08 335.35 -379.65 312.1 -356.84 296.59 -331.33 281.35 -304.86 266.3 -279.31 251 -256.06 235.77 -236.42 220.5 -221.69 204.83 -212.2 188.95 -208.13 172.76 -209.72 155.99 -215.98 138.72 -225.98 120.84 -239.18 102.22 -253.7 82.84 -268.18 62.6 -281.95 41.54 -293.15 19.56 -300.77 -3.35 -304.56 -27.01 -303.45 -51.53 -297.24 -76.82 -286.32 -102.51 -270.63 -128.68 -250.77 -155.1 -227.57 -181.32 -201.74 -207.28 -174.25 -232.65 -146.05 -256.96 -118.04 -280.03 -91.07 -301.45 -65.89 -320.95 -43.09 -338.19 -23.07 -352.85 24.05 -362.29 33.65 -372.23 45.09 -393.34 55.19 -412.61 67.43 -435.21 81.64 -460.58 97.49 -487.97 115.03 -516.34 134.03 -544.59 154.28 -571.61 175.62 -596.2 197.78 -617.22 220.73 -633.95 244.16 -645.49 267.84 -651.35 291.92 -651.85 315.98 -646.86 339.9 -636.94 363.9 -623.62 387.59 -607.57 410.89 -590.22 434.11 -573.74 456.87 -559.07 479.15 -547.69 501.28 -541.35 522.93 -540.4 544.1 -545.36 565.13 -556.61 585.71 -573.29 605.88 -594.47 625.95 -619.03 645.65 -645.04 665 -670.61 684.29 -694.07 703.28 -713.38 721.97 -726.94 740.65 -734.01 759.06 -733.63 777.18 -725.7 795.3 -711.35 812.93 -691.47 830.04 -667.78 847.14 -642.51 863.71 -617.37 879.71 -594.31 903.33 -568.31 947.23 -554.03 967.32 -566.09 980.33 -580.62 992.56 -597.89 1003.97 -616.26 1034.92 -658.01 1074.06 -654.92 1085.26 -627.85 1092.98 -604.29 1100.56 -577.85 1108.21 -549.83 1116.65 -521.6 1125.51 -494.33 1135.01 -469.13 1145.77 -447.02 1157.54 -428.59 1170.56 -414.22 1185.22 -404.37 1201.39 -398.67 1219.21 -396.74 1238.79 -398.54 1260.06 -402.91 1282.97 -409.02 1307.31 -416.65 1332.96 -424.31 1359.64 -431.17 1386.87 -437.12 1414.4 -440.84 1441.73 -441.83 1468.27 -440.24 1493.61 -435.26 1517.16 -426.85 1538.45 -415.36 1557 -400.58 1572.33 -382.83 1584.4 -362.55 1592.79 -339.99 1597.38 -315.67 1598.76 -289.92 1596.74 -263.28 1591.72 -236.21 1584.91 -208.94 1576.42 -181.99 1567.09 -155.68 1558.47 -130.11 1550.86 -105.63 1545.2 -82.39 1542.87 -60.39 1544.04 -39.77 1549.28 -20.48 1559.24 -2.55 1573.59 14.14 1592.13 29.74 1614.5 44.14 1639.72 57.69 1666.76 70.57 1694.53 82.55 1721.6 94.13 1746.57 105.49 1776.98 121.65 1803.58 154.12 1797.45 171.02 1786.45 182.28 1771.02 194.1 1752.48 206.53 1732.99 218.91 1713.65 231.96 1696.15 245.71 1678.25 266.69 1679.1 312.27 1699.14 336.89 1719.21 353.55 1742.3 370.94 1766.59 389.06Q1766.6 389.07 1766.6 389.07" opacity="0.77"></path><path d="M1714.1 455.91C1736.78 473.12 1756.82 490.69 1772.75 508.57 1783.94 526.44 1789.07 544.6 1787.79 563.01 1780.57 581.38 1767.48 599.95 1749.41 618.66 1727.76 637.25 1703.61 655.91 1678.44 674.53 1631.46 711.14 1596.24 746.93 1578.81 780.91 1581.82 812.82 1599.92 841.6 1625.51 866.17 1660.57 895.69 1639.99 925.83 1579.35 930.64 1527.43 935.33 1474.17 942.12 1425.13 953.83 1384.49 974.13 1354.26 1003.03 1334.33 1041.31 1324.81 1087.96 1321.76 1140.24 1321.79 1193.98 1324.27 1243.94 1323.93 1284.97 1318.71 1312.06 1309.46 1323.83 1293.26 1319.24 1270.52 1301.16 1242.81 1278.17 1209.85 1255.85 1173.12 1242.62 1133.43 1246.76 1091.95 1269.3 1049.89 1308.65 1006.82 1358.94 964.35 1409.39 923.07 1448.65 902.38 1461.47 882.06 1468.38 862.14 1468.97 842.23 1463.7 822.73 1452.6 803.68 1436.51 784.64 1417.2 766.03 1395.63 747.88 1373.47 729.73 1353 712.04 1335.29 694.83 1321.8 677.61 1314.1 661.07 1312.34 645.22 1316.52 629.36 1326.65 614.19 1341.37 599.7 1359.4 585.22 1379.83 571.43 1400.46 558.32 1419.67 545.22 1436.5 532.78 1449.08 521.01 1456.44 497.35 1454.6 476.04 1429.16 456.64 1385.77 436.23 1334.15 416.56 1283.96 396.57 1244.22 373.64 1221.49 348.41 1216.2 319.59 1225.17 285.79 1244.74 247.1 1265.37 203.28 1279.87 155.44 1284.85 104.53 1274.89 52.79 1249.93 3.5 1212.48 -40.73 1165.27 -76.34 1113.08 -101.54 1059.88 -114.28 1009.8 -114.29 965.5 -105.92 928.56 -90.99 899.25 -74.92 876.56 -66.06 860.61 -67.57 848.31 -83.55 837.54 -115.88 829.07 -160.87 819.07 -212.7 806.4 -263.52 792.98 -304.05 775.8 -326.48 754.93 -328.49 732.63 -309.71 707.02 -276.01 678.7 -257.49 664.2 -239.2 649.16 -222.59 633.67 -205.14 610.03 -202.88 560.97 -219.64 535.79 -237.3 518.91 -258.21 501.86 -280.89 484.64 -303.98 467.42 -325.23 450.25 -343.06 433.13 -356.7 415.99 -364.64 398.86 -366.33 381.72 -362.04 364.51 -351.61 347.24 -335.76 329.85 -315.76 312.33 -292.58 294.61 -267.65 276.64 -218.93 240.03 -179.62 201.86 -156.86 161.69 -154.52 120.09 -168.63 76.11 -192.37 29.87 -219.58 -17.12 -239.35 -65.3 -245.26 -113.38 -235.5 -159.14 -208.19 -201.72 -166.79 -238.84 -116.53 -269.23 -63.03 -291.17 -12.09 -303.49 31.79 -308.46 65.97 -305.66 89.89 -297.58 106.06 -288.41 108.89 -319.38 112.77 -374.4 119.95 -424.74 133.69 -478.74 153.85 -529.02 178.85 -568.71 209.34 -591.48 243.96 -593.99 281.74 -579.49 321.75 -551.72 362.75 -519.53 404.97 -495.57 446.92 -486.57 487.91 -498.02 508.5 -512.02 528.76 -530.45 548.64 -552.33 568.53 -576.57 588.03 -601.44 607.09 -625.27 626.16 -646.71 644.78 -664.01 662.95 -675.87 681.11 -681.77 698.81 -680.89 716.03 -673.2 733.24 -659.71 749.77 -641.13 765.61 -618.94 781.45 -595.05 796.6 -570.9 811.07 -548.19 832.44 -521.02 871.85 -499.1 889.97 -505.8 913.92 -531.77 935.76 -565.78 956 -596.64 977.48 -616.57 998.61 -616.69 1020.51 -595.6 1045.55 -557.13 1073.25 -506.76 1104.79 -453.05 1141.15 -404.25 1182.3 -366.3 1228.18 -342.21 1277.32 -333.45 1328.66 -336.14 1379.73 -345.44 1427.27 -358.52 1468.66 -367.82 1500.56 -369.36 1521.77 -362.5 1530.57 -344.13 1527.34 -315.17 1517.06 -277.61 1501.9 -233.16 1487.49 -184.77 1481.93 -134.14 1487.98 -84.01 1508.94 -36.08 1545.56 9.44 1593.38 51.31 1645.83 89.62 1694.81 124.72 1731.34 157.1 1748.44 187.65 1745.12 216.14 1722.24 244.14 1686.82 272.47 1668.53 286.31 1651.2 300.41 1636.25 314.84 1622.34 336.51 1628.71 381.96 1649.33 405.9 1668.88 422.02 1690.99 438.68 1714.09 455.9Q1714.1 455.91 1714.1 455.91" opacity="0.51"></path><path d="M1661.6 484.99C1702.85 517.61 1729.92 549.83 1736.08 581.39 1721.09 612.72 1686.85 642.96 1641.26 671.56 1594.63 699.32 1555.33 724.72 1529.97 747.15 1522.71 768.11 1531.12 785.57 1550.32 799.29 1586.76 816.55 1602.68 840.9 1564.82 855.65 1523.71 871.58 1475.33 892.78 1424.77 920.76 1376.3 956.43 1333.56 998.91 1298.6 1046.83 1272.84 1097.27 1255.28 1147.05 1244.18 1191.82 1233.43 1244.93 1193.15 1194.36 1161.19 1186.36 1135.41 1202.39 1106.1 1234.17 1074.27 1278.02 1040.69 1327.35 1005.79 1372.44 970.42 1404.01 934.36 1416.72 898.59 1407.11 863.62 1377.83 828.51 1338.87 794.51 1298.95 761.89 1269.3 729.27 1260.12 698.8 1271.96 670.38 1300.52 641.81 1339.25 614.98 1375.26 589.52 1398.61 563.37 1404.41 537.84 1388.56 512.24 1354.09 484.89 1308.09 456.27 1258.18 425.52 1212.9 391.81 1179.43 354.97 1160.74 314.61 1156.75 271.38 1166.38 225.28 1182.89 177.36 1200.13 129.82 1214.69 83.84 1219.65 41.97 1212.48 6.4 1193.65 -20.82 1162.67 -37.81 1122.32 -45.61 1075.61 -43.59 1025.88 -33.63 976.5 -21.59 929.47 -9.52 887.06 -2.38 850.05 -6.27 818.88 -22.31 792.92 -51.66 770.99 -93.17 753.42 -141.82 737.65 -191.14 722.3 -234.25 708.63 -263.9 693.61 -275.04 676.53 -268.09 659.54 -244.37 639.86 -210.33 617.41 -177.33 594.69 -152.68 569.27 -144.15 541.32 -156.77 513.26 -187.14 482.87 -228.39 450.25 -271.1 417.63 -302.14 383.55 -313.66 348.09 -304.14 312.5 -274.06 275.31 -230.4 236.52 -183.09 197.46 -140.74 156.71 -110.77 114.51 -98.28 72.42 -102.09 29.5 -118.19 -13.35 -142.51 -54.53 -165.66 -93.88 -180.95 -129.87 -185.38 -161.5 -174.39 -187.54 -148.52 -206.65 -110.72 -219.92 -64.19 -226.06 -13.91 -225.7 35.77 -222.99 80.96 -218.06 119.13 -214.1 148.58 -216.5 169.73 -226.23 183.94 -245.92 191.29 -277.26 195.52 -318.53 199.04 -367.06 201.38 -418.27 206.53 -466.39 215.61 -505.12 227.07 -530.22 243.41 -538.12 264.28 -528.56 287.98 -507.19 315.41 -478.53 345.61 -450.93 377.61 -434.86 411.23 -434.59 445.62 -452.97 480.76 -488.91 515.87 -534.51 550.43 -579.7 585.14 -614.72 618.95 -629.87 651.57 -620.7 684.19 -591.05 714.85 -547.83 743.67 -502.41 772.65 -466.68 800.14 -447.46 826.52 -447.58 853.65 -466.55 880.45 -496.06 907.64 -526.99 936.61 -552.44 967.12 -562.98 999.95 -555.1 1035.61 -529.99 1074.38 -489.82 1116.48 -440.84 1160.97 -390.04 1207.81 -343.62 1255.75 -306.37 1302.5 -281.65 1346.82 -269.09 1386.15 -266.58 1444.17 -285.48 1427.62 -249.07 1418.68 -201.06 1426.77 -161.3 1447.39 -117.78 1480.92 -72.52 1525.3 -26.05 1575.03 19.63 1623.26 63.61 1663.27 106.43 1688.32 146.9 1694.25 185.12 1682.69 221.88 1655.92 256.9 1621.2 290.65 1590.12 323.57 1569.64 355.94 1566.57 388.14 1584.54 420.12 1618.88 452.37 1661.59 484.98Q1661.6 484.99 1661.6 484.99" opacity="0.86"></path><path d="M1609.1 456.69C1648.29 487.5 1675.16 516.33 1683.75 543.08 1673.46 569.71 1644.86 594.05 1603.95 615.89 1559.16 637.41 1517.72 656.26 1486.24 672.44 1468.79 695.36 1509.76 733.64 1539.15 753.55 1550.52 770.62 1549.59 790.69 1535.32 815.05 1509.23 845 1472.46 880.27 1428.63 920.8 1381.3 965.34 1334.08 1012.5 1290.07 1059.79 1251.35 1104.07 1219.21 1142.54 1193.71 1171.93 1155.61 1182.51 1121 1129.32 1103.04 1139.19 1088.53 1165.39 1070.47 1203.58 1049.24 1248.93 1026.63 1294.97 1001.44 1333.42 974.3 1357.09 946.41 1362.93 917.22 1349.1 887.23 1318.88 857.03 1281.54 826.41 1244.38 795.61 1216.8 764.8 1207.52 734.53 1216.99 704.72 1241.94 674.71 1277.44 644.77 1312.59 614.56 1338.68 583.61 1350.9 551.71 1344.08 518.44 1319.16 483.77 1280.89 447.11 1234.65 408.24 1187.8 367.94 1147.25 325.63 1117.35 281.88 1100.25 238.3 1097.03 195.09 1103.95 153.86 1116.77 116.37 1132.96 83.89 1145.75 58.28 1151.44 39.71 1149.28 29.55 1136.19 27.89 1112.73 31.52 1080.69 40.29 1041.4 51.24 997.63 58.7 951.31 61.16 905 55.18 860.59 37.36 818.73 8.45 780.67 -30.4 746.5 -76.15 716.19 -123.49 689.17 -166.3 664.54 -199.4 642.66 -217.67 621.74 -218.5 600.9 -204.4 581.32 -177.67 560.74 -144.77 538.62 -115.75 516.87 -96.22 493.09 -92.02 467.06 -106.7 441.09 -136.7 412.74 -175.89 381.93 -216.39 351.12 -246.84 318.59 -260.38 284.56 -255.34 250.58 -231.09 215.24 -192.71 178.88 -148.21 142.91 -104.81 106.42 -69.61 70.1 -48.31 35.05 -41.76 1.25 -48.35 -30.24 -66.09 -59.01 -87.68 -84.04 -107.14 -104.32 -122.73 -126.27 -75.31 -140.25 -16.91 -137.78 29.49 -138.1 77.1 -141.11 122.61 -149.44 163.77 -166.35 198.9 -191.71 227.56 -225.93 249.25 -267.99 265.47 -315.09 277.78 -363.36 285.85 -408.25 292.89 -445.04 300.42 -469.29 307.26 -479.67 316.55 -474.88 328.86 -456.92 342.28 -432.65 359.12 -406.47 379.15 -385.59 400.43 -378.04 424.41 -385.93 450.55 -410.04 477.41 -448.01 505.79 -492.23 535.24 -533.83 564.9 -564.87 595.23 -577.47 626.04 -568.2 656.85 -540.62 687.4 -500.34 717.75 -456.91 748.3 -420.59 779.04 -397.68 810.29 -391.63 842.25 -403.41 875.34 -427.15 909.95 -455.8 945.82 -483.76 983.69 -501.91 1023.65 -505.53 1064.73 -493.97 1107.5 -466.56 1151.25 -427.03 1194.3 -380.57 1236.37 -332.32 1275.79 -287.52 1310.96 -250.32 1340.59 -222.85 1362.98 -205.45 1378.54 -205.09 1355.6 -205.77 1366.06 -182.95 1388.04 -159.83 1420.76 -130.79 1462.4 -97.28 1509.34 -60.25 1556.03 -20.91 1596.36 19.4 1625.53 60.81 1639.04 101.78 1635.13 141.63 1617.32 181.34 1588.63 219.56 1556.02 256.14 1529.53 292.4 1514.34 327.19 1515.39 360.57 1535.02 393.82 1568.59 425.87 1609.09 456.68Q1609.1 456.69 1609.1 456.69" opacity="0.77"></path><path d="M1556.6 390.11C1593.69 419.1 1620.17 445.75 1630.81 470.11 1624.82 494.51 1601.81 516.69 1566.13 536.82 1524.47 557.21 1482.78 575.92 1447.22 593.37 1422.99 611.8 1411.5 629.86 1412.23 648.32 1424.38 669.09 1442.37 691.61 1461.32 716.77 1478.62 745.56 1488.3 777.93 1487.86 814.17 1477.42 853.67 1455.73 896.08 1424.56 940.16 1386.36 983.8 1343.53 1025.51 1299.08 1062.77 1255.15 1093.62 1214.06 1116.06 1177.18 1128.46 1145.29 1131.96 1118.53 1126.12 1096.32 1112.85 1071.73 1089.73 1036.46 1074.28 1019.84 1100.97 1008.91 1134.66 995.88 1176.09 980.45 1220.06 964.69 1260.87 946.37 1291.85 925.58 1307.77 904.44 1307.46 881.08 1290.23 855.69 1259.69 830.19 1224.24 802.88 1189.85 773.89 1164.3 744.9 1155 714.89 1162.27 683.92 1183.7 652.83 1215.71 620.55 1249.27 587.01 1276.87 553.11 1294.15 517.72 1295.41 480.88 1280.01 443.7 1250.82 405.23 1211.04 365.91 1166.42 327.1 1123.03 288.46 1085.52 251.05 1057.34 216.13 1041 184.33 1035.44 157.03 1038.52 115.47 1068.4 120.92 1048.33 128.2 1006.43 125.13 970.7 114.53 930.99 94.78 889.29 65.03 846.43 27.26 804.25 -15.9 763.77 -60.71 724.87 -102.33 688.53 -135.73 654.71 -157.72 623.01 -165.1 593.35 -157.24 565.2 -138.04 538.52 -110.2 512.51 -79.73 486.61 -55.23 461.39 -40.75 435.62 -40.51 408.97 -56.88 382.49 -86.3 354.8 -123.39 325.81 -161.64 296.81 -191.33 267.2 -206.5 237.2 -205.5 207.37 -186.89 177.49 -154.2 148.04 -113.68 119.25 -71.09 91.56 -32.84 65.63 -4.63 41.17 11.37 19.33 14.91 0.79 -27.15 -34.06 -45.97 -54.71 -9.15 -62.18 26.45 -73.4 67.73 -89.96 111.69 -113.19 156.13 -143.94 198.61 -181.22 237.52 -223.71 271.96 -268.92 301.46 -313.8 326.34 -354.54 354.72 -399.08 395.09 -410.62 412.93 -381.55 430.77 -347.73 476.97 -332.96 506.26 -368.98 526.89 -407.77 549.82 -449.85 574.88 -487.61 600.05 -514.77 627.17 -524.99 656.17 -515.7 685.16 -490.15 715.34 -452.82 746.65 -411.64 778.06 -375.36 810.78 -349.59 844.84 -338.09 879.17 -342.82 914.98 -359.94 952.16 -384.39 989.49 -412 1027.9 -434.55 1066.85 -447 1104.98 -447.61 1142.54 -433.62 1178.4 -406.44 1211.46 -369.38 1240.98 -325.78 1265.64 -280.22 1285.45 -236.76 1299.11 -198.63 1306.15 -167.89 1299.27 -132.27 1300.76 -130.68 1331.57 -125.12 1364.63 -116.67 1404.83 -102.82 1449.08 -84 1493.41 -61.55 1532.94 -35.07 1562.89 -5.6 1580.6 26.17 1583.47 59.61 1571.62 93.79 1549.74 128.95 1521 163.95 1491.66 198.24 1470.17 232.79 1460.08 266.25 1464.82 298.34 1485.72 330.45 1518.34 361.1 1556.59 390.1Q1556.6 390.11 1556.6 390.11" opacity="0.13"></path><path d="M1504.1 330.2C1539.06 357.38 1564.94 383.18 1577.25 407.69 1575.15 432.33 1557.53 455.95 1527.39 478.84 1489.91 502.3 1449.72 525.6 1412.22 549.23 1382.42 574.15 1362.59 600.21 1353.64 627.93 1356.16 657.68 1366.66 689.71 1381.68 724.25 1399.41 760.73 1414.29 799.37 1423.27 839.53 1425.76 879.73 1418.82 919.46 1402.54 957.11 1378.33 991.01 1346.79 1019.82 1310.07 1041.8 1270 1056.83 1228.64 1063.65 1187.87 1062.27 1148.65 1055.55 1112.35 1043.74 1079.47 1029.49 1050.2 1017.9 1024.4 1010.33 1001.52 1009.95 981.78 1020.15 963.82 1040.53 946.81 1070.6 931.56 1108.52 916.11 1149.98 899.85 1190.07 884.26 1224.23 867.18 1247.36 848.32 1255.99 829.6 1250.38 808.86 1230.61 786 1200.32 763.15 1166.99 738.15 1135.37 710.97 1111.8 683.78 1102.54 655.06 1107.81 624.97 1125.85 594.88 1154.22 563.45 1185.52 530.9 1213.5 498.5 1234.4 465.22 1242.44 431.5 1235.96 398.44 1216.39 365.61 1184.99 333.74 1145.85 303.65 1103.84 275.67 1063.09 250.79 1027.49 196.97 992.37 196.28 1003.93 187.19 985.53 171.38 965.34 148.06 939.29 117.26 908.7 79.98 874.57 38.75 838.04 -3.21 800.42 -42.48 761.84 -75.13 723.71 -97.57 686.68 -108.55 650.16 -106.42 615.2 -91.95 581.87 -69.8 549.34 -42.58 518.22 -15.6 488.31 4.04 458.9 13.67 430.3 10.39 402.31 -7.29 374.46 -35.93 346.96 -70.89 319.77 -106.87 292.59 -135.61 266.37 -152.02 241.27 -154.58 216.32 -141.31 192.75 -114.5 170.89 -78.87 149.54 -38.75 130.3 0.35 113.51 56.42 75.25 25.96 39.27 7.25 28.11 1.92 16.8 5.52 2.39 18.36 -16.3 39.23 -40.65 67.95 -70.25 102.57 -105.04 141.28 -144.07 182.13 -185.93 223.17 -228.42 263.35 -268.89 301.16 -304.71 335.89 -332.95 367.35 -352.15 395.39 -360.43 420.41 -357.4 442.3 -346.06 462.16 -327.46 480.77 -305.37 497.48 -286.16 514.08 -272.45 531.2 -268.22 547.53 -277.08 565.12 -298.09 584.31 -329.48 603.28 -367.95 624.17 -407.25 647.1 -441 670 -464.42 695.02 -472.45 722.21 -463.2 749.39 -439.63 778.09 -405.26 808.13 -366.55 838.15 -330.88 869.43 -303.11 901.72 -287.01 933.79 -285.14 966.56 -295.29 999.56 -314.11 1031.75 -338.85 1063.43 -362.62 1093.83 -380.61 1122.33 -390.76 1148.41 -388.99 1171.15 -374.95 1190.76 -350.32 1206.06 -316.41 1216.5 -276.52 1223.66 -233.96 1226.31 -191.88 1225.02 -153.07 1222.88 -119.58 1219.35 -92.48 1216.26 -71.88 1217.28 -58.24 1222.48 -49.72 1233.71 -44.73 1252.97 -43.48 1279.63 -42.75 1313.26 -41.05 1352.45 -39.32 1394.44 -34.63 1435.84 -26.48 1473.21 -16.38 1502.77 -2.48 1521.29 14.87 1528.1 34.26 1522.05 56.48 1504.55 80.87 1480.78 106.56 1453.64 133.61 1428.5 161.42 1412.17 189.79 1406.9 218.34 1414.84 246.65 1436.62 275.09 1468.11 303.01 1504.09 330.19Q1504.1 330.2 1504.1 330.2" opacity="0.77"></path><path d="M1451.6 317.42C1484.39 342.79 1509.49 368.29 1523.1 393.95 1524.42 419.75 1511.87 445.95 1487.39 472.73 1454.88 499.99 1417.7 528.23 1380.34 557.67 1347.29 587.93 1321.15 619.69 1303.7 653 1296.45 687.05 1297.68 722.45 1305.42 758.77 1318.78 794.81 1333.28 830.65 1346.05 865.25 1356.37 897.4 1360.54 926.39 1357.5 950.91 1347.91 970.58 1330.69 984.25 1306.82 991.28 1277.68 993.19 1244.24 989.27 1208.16 980.6 1170.42 970.79 1132.52 960.18 1095.57 951.3 1059.78 948.15 1026.11 951.27 994.76 962.37 965.57 982.85 938.58 1011.33 913.46 1046.17 890.15 1084.87 867.99 1123.44 846.47 1157.68 826.03 1184.32 805.51 1199.69 784.53 1201.74 764 1191.78 742.52 1170.33 719.88 1140.82 697.35 1109.8 673.43 1080.93 648.06 1059.3 622.69 1050.16 596.47 1053.62 569.59 1068.43 542.81 1093.08 515.59 1121.59 488.28 1148.9 461.41 1171.98 434.93 1185.28 409.34 1186.62 384.83 1176.42 361.93 1154.4 341.27 1123.11 322.43 1086.12 306.54 1046.56 294.08 1008.08 283.76 973.87 277 945.86 273.69 925.15 271.9 912.61 250.77 931.22 223.18 929.76 196.27 923.65 163.85 912.18 127.11 895.75 87.92 875.48 48.84 851.17 12.85 823.8 -17.51 793.99 -39.42 762.47 -50.76 730.12 -51.91 696.78 -42.29 663.54 -23.55 630.92 -0.52 598.13 24.54 566.33 47.26 535.74 61.94 505.22 67.03 475.92 60.69 447.93 42.07 419.99 14.39 393.28 -18.39 367.91 -52.07 342.54 -79.68 319.11 -96.96 297.63 -102.58 276.21 -94.24 256.81 -73.28 239.48 -43.17 222.23 -6.91 207.03 31.02 193.79 66.06 180.38 95.26 168.56 116.37 157.94 128.69 140.64 106.74 100.76 86.84 73.87 75.18 51.2 68.85 24.91 69.2 -5.27 75.69 -39.08 89.83 -75.97 110.84 -114.91 137.43 -154.19 168.88 -192.37 203.59 -227.25 240.54 -257.02 278.25 -279.75 315.54 -293.78 352.14 -299.48 386.97 -296.07 419.68 -284.49 450.48 -268.64 479.1 -249.76 505.8 -231.36 530.73 -218.67 554.36 -213.16 577.15 -217.28 598.84 -232.93 620.38 -258.34 642.17 -291.21 663.48 -328.32 685.52 -364.29 708.53 -393.97 731.43 -413.8 755.52 -419.83 780.89 -410.7 806.26 -389.07 832.31 -357.63 858.83 -321.59 885.23 -287.06 911.88 -258.14 938.42 -238.38 964.48 -230.64 989.94 -233.89 1014.28 -246.22 1037.52 -266.13 1058.96 -288.19 1077.98 -308.29 1102.38 -328.44 1132.13 -307.93 1137.43 -267.64 1139.25 -232.34 1139.3 -193.48 1138.64 -153.71 1140.24 -115.08 1143.62 -79.5 1150.29 -48.16 1162.52 -21.93 1180.06 -0.76 1203.52 15.86 1233.13 27.64 1267.7 36.41 1305.77 43.37 1345.25 47.87 1383.52 52.47 1417.55 58.09 1454.23 67.16 1462 98.12 1434.94 120.54 1411.32 137.13 1387.17 155.89 1366.85 176.48 1355.68 197.54 1354.8 220.03 1365.44 243.65 1387.73 267.41 1417.9 292.04 1451.59 317.41Q1451.6 317.42 1451.6 317.42" opacity="0.16"></path><path d="M1399.1 360.39C1429.7 383.95 1453.83 408.69 1468.36 434.51 1472.6 460.38 1464.7 487.44 1445.8 515.61 1418.76 543.9 1385.79 573.35 1350.45 603.82 1316.53 634.28 1286.51 665.54 1262.58 697.21 1246.7 728.28 1238.5 759.06 1237.25 788.83 1242.9 816.79 1252.35 842.58 1263.38 865.28 1285.33 905.07 1252.19 907.29 1216.62 895.14 1187.96 889.01 1156.63 885.31 1123.77 885.9 1089.73 893.31 1055.63 907.3 1022.18 928.28 989.12 956.2 957.35 989.19 927.04 1025.07 897.66 1061.37 869.7 1094.7 843 1121.77 817.09 1140.62 792.09 1148.72 767.76 1145.13 743.85 1131.83 720.24 1109.5 696.76 1081.25 673.4 1052.7 649.95 1026.53 626.39 1006.8 602.83 997.86 579.72 999.69 557.19 1011.48 534.78 1032.4 513.18 1057.73 492.66 1083.48 463.25 1115.81 414.11 1123.87 395.72 1095.43 385.2 1066.13 377.16 1031.6 371.54 994.8 366.31 958.52 362.85 924.92 360.58 895.81 355.27 864.12 334.04 838.25 312.7 838.73 292.12 842.59 266.96 846.21 237.38 848.36 204.03 849.79 168.17 848.02 131.5 842.68 95.94 834.94 63.66 823.37 36.99 808.31 17.24 790.87 6.24 770.58 4.85 748.09 11.51 724.01 26.19 698.54 46.82 672.31 68.86 645.29 90.59 618.11 108.53 591.21 118.34 564.02 119.3 537.44 110.4 511.75 91.22 486 64.7 461.26 34.1 437.71 2.73 414.15 -23.58 392.33 -41.35 372.19 -49.49 351.99 -45.58 333.35 -30.25 316.11 -5.98 298.58 25.36 282.12 60.36 266.4 95.22 249.89 127.28 233.51 154.07 216.77 173.37 198.44 185.1 178.92 189.63 157.67 186.8 134.05 179.39 108.07 169.53 79.5 157.66 48.54 147.41 15.24 140.51 -19.89 136.72 -55.74 138.55 -91.72 146.24 -126.45 158.84 -158.48 177.03 -186.55 199.93 -209.06 226.57 -225.53 256.33 -234.67 288.07 -236.06 321.38 -231.48 355.15 -220.71 388.64 -205.44 422.04 -189.65 454.39 -174.33 485.42 -162.3 515.69 -157.41 544.6 -160.16 572.2 -171.68 599.08 -192.62 624.97 -220.82 650.04 -253.77 674.71 -288.61 698.91 -320.87 722.79 -346.46 746.56 -362.91 770.22 -367.13 793.78 -358.2 817.34 -338.47 840.24 -309.91 862.36 -276.7 884.37 -243.79 905.38 -214.53 925.13 -192.13 944.49 -179.45 962.25 -176.3 978.11 -181.85 993.25 -195.63 1006.19 -213.62 1016.74 -232.64 1038.32 -262.83 1058.49 -207.07 1068.21 -158.15 1079.01 -121.89 1093.16 -85.08 1111.44 -49.34 1134.63 -15.65 1162.21 14.96 1193.81 42.09 1228.52 65.4 1265 85.22 1301.41 102.09 1335.8 115.7 1366.03 127.46 1389.88 138.19 1410.1 151.61 1393.93 180.33 1364 197.9 1342.3 210.17 1322.19 224.36 1307.01 240.5 1300.77 256.76 1303.79 274.93 1316.59 294.94 1339.01 315 1367.72 336.82 1399.09 360.38Q1399.1 360.39 1399.1 360.39" opacity="0.57"></path><path d="M1346.6 430.11C1374.97 451.85 1397.97 474.75 1413.04 498.65 1419.68 522.5 1415.94 547.27 1402.36 572.73 1380.99 597.97 1353.08 623.65 1321.32 649.42 1288.72 674.58 1257.39 699.34 1229.52 723.17 1207.16 745.71 1190.78 766.62 1180.57 785.27 1208.04 825.78 1170.49 823.82 1137.65 838.11 1112.36 855.43 1085.17 878.14 1056.85 905.74 1027.45 937.3 997.82 970.91 968.47 1004.39 938.91 1035.67 910.06 1062.14 882.14 1081.45 854.38 1092.76 827.61 1094.43 801.9 1086.3 776.35 1070.67 751.76 1048.23 728.14 1021.67 704.58 995.69 681.89 972.19 660.15 954.3 638.4 945.62 618.11 946.04 599.32 955.03 580.58 972.31 563.43 994.18 547.97 1017.61 508.47 1062.93 466.13 1027.04 456.26 982.39 448.87 948.77 441.4 914.64 433.18 881.89 422.56 852.09 410.07 826.18 395.04 804.72 376.5 788.36 354.74 776.41 329.59 768.2 301.18 764.05 270.06 762.03 237.03 761.09 203.26 761.84 169.96 761.95 138.78 760.69 81.31 746.7 89.05 696.48 117.97 670.76 137.46 652.24 154.98 632.46 167.96 611.82 173.15 590.78 170.49 569.25 159.55 547.51 140.18 525.66 114.97 503.79 86.6 482.04 57.57 460.3 32.69 439.19 14.79 418.68 4.66 398.07 4.72 377.86 14.81 357.89 33.2 337.52 58.96 317.01 89.61 296.08 122.18 274.34 154.51 251.72 184.26 227.93 209.25 202.94 228.65 176.43 242.02 148.31 248.61 119 249.88 88.21 247.03 56.23 240.07 23.97 231.83 -8.5 223.86 -40.37 215.95 -70.54 210.84 -98.38 209.35 -122.74 213.69 -150.62 249.68 -170.91 279.57 -162.91 303.12 -152.81 328.88 -139.75 356.08 -125.53 384.56 -113.65 413.57 -104.61 442.54 -100.39 471.89 -103.51 500.7 -113.7 528.71 -131.13 556.66 -155.65 583.67 -184.99 609.63 -216.77 635.47 -248.59 660.32 -276.86 684.12 -298.44 707.88 -311.74 730.67 -314.37 752.42 -305.7 774.17 -287.81 794.35 -262.11 812.95 -231.83 831.5 -200.96 848.39 -172.12 863.56 -148.1 885.25 -127.21 919.75 -135.08 933 -156.58 957.61 -196.62 1003.86 -186.23 1028.48 -153.68 1049.24 -125.91 1073.17 -94.9 1100.3 -62.09 1130.29 -28.41 1162.55 4.89 1196.13 36.92 1229.78 67.34 1262.23 95.49 1291.84 121.23 1317.33 144.53 1337.14 165.56 1349.95 184.68 1355.98 201.73 1354.3 217.58 1345.26 232.72 1331.44 246.57 1313.27 260.44 1292.98 274.73 1266.91 295.72 1250.68 342.83 1268.28 369.81 1290.48 388.27 1317.56 408.35 1346.59 430.1Q1346.6 430.11 1346.6 430.11" opacity="0.29"></path><path d="M1294.1 479.49C1320.21 499.42 1341.92 519.6 1357.19 539.89 1365.7 560.1 1365.53 580.25 1356.82 600.12 1341.04 619.66 1318.7 638.59 1291.65 656.59 1262.23 673.88 1232.01 689.82 1202.92 704.03 1176.84 717.14 1154.64 728.13 1137.03 736.74 1136 750.54 1133.28 780.88 1117.4 808.87 1103.5 833.21 1086.9 860.9 1068.13 890.94 1047.74 922.15 1025.86 952.83 1003.02 981.13 979.28 1005.64 955.14 1024.46 931.01 1036.1 906.5 1040.61 882.33 1036.95 858.78 1025.45 835.1 1008.51 812.18 986.66 790.2 962.12 768.19 938.79 747.16 917.89 727.22 901.8 707.29 893.46 688.93 892.67 672.1 899.13 655.26 912.92 639.92 931.2 626 951.74 605.59 983.28 569.88 1019.84 553.44 1017.11 541.73 1006.24 529.93 988.6 517.59 965.4 503.63 938.21 488.45 908.16 471.63 876.88 452.55 845.73 431.35 815.87 407.86 788.28 382.14 763.72 354.35 742.46 324.87 724.56 294.44 710.36 263.59 699.08 233.34 690.15 204.72 684 178.74 679.08 156.68 674.72 128.66 663.31 161.78 633.78 188.58 617.57 210.79 599.04 223.45 553.77 208.15 527.7 188.94 509.84 165.21 490.91 139.1 470.98 112.43 451.05 89.13 430.58 71.44 409.61 59.87 388.56 56.71 366.89 62.1 344.53 74.84 321.95 94.74 298.49 120.07 274.11 148.64 249.35 178.89 223.56 208.85 196.77 236.57 169.68 260.99 141.74 281.18 113.22 296.14 84.94 306.29 56.66 312.06 28.95 313.1 2.6 311.2 -22.15 307.48 -44.52 293.4 -91.13 326.91 -64.97 351.55 -50.19 370.42 -44.77 390.98 -43.37 412.7 -47.11 435.4 -57.42 458.7 -73.53 482.17 -95.03 506.1 -121.31 529.83 -150.26 553.07 -179.77 576.47 -208.01 599.21 -232.16 621.08 -249.89 642.99 -260.3 663.98 -261.53 683.91 -253.2 703.85 -237.11 722.26 -214.19 739.18 -186.91 756.13 -158.44 771.66 -130.72 785.85 -106.08 806.8 -80.3 844.39 -70.27 862.28 -83.09 875.11 -96.77 888.24 -111.21 902.1 -124.64 917.63 -136.91 934.52 -145.28 953.16 -148.87 973.98 -148.18 996.91 -141.82 1022.01 -130.07 1049.08 -113.88 1077.94 -93.22 1108.1 -69.06 1138.75 -42.21 1169.31 -13.46 1198.73 16.23 1225.99 46.53 1250.09 76.5 1269.8 105.6 1284.79 133.91 1293.96 160.81 1296.78 186.19 1294.38 210.32 1286.21 233.01 1273.1 254.44 1257.75 274.78 1240.47 294.25 1223.16 313.12 1209.07 331.29 1198.69 349.28 1193.64 367.34 1195.93 385.07 1204.97 403.17 1220.47 421.79 1242.1 440.33 1267.42 459.55 1294.09 479.48Q1294.1 479.49 1294.1 479.49" opacity="0.46"></path><path d="M1241.6 475.2C1265.43 493.32 1285.69 510.63 1300.81 527.07 1312.04 551.14 1290.18 593.54 1260.21 611.21 1235.35 622.13 1208.27 631.44 1180.52 639.04 1153.64 646.25 1128.57 651.77 1106.23 655.66 1058.66 670.52 1060.2 704.74 1062.92 727.66 1063.74 747.32 1062.42 769.89 1058.82 795.02 1054.01 822.19 1046.8 850.49 1037.38 878.85 1026.71 906.22 1014.09 931.27 999.84 952.59 984.64 969.53 968.21 980.73 950.87 985.42 932.99 984.24 914.56 976.53 895.86 962.87 876.92 945.55 857.95 924.89 839.17 902.67 820.33 882.02 801.79 863.64 783.66 849.3 765.54 841.37 748.27 839.58 731.82 843.78 715.3 854.31 699.48 868.99 684.25 886.27 668.77 905.67 653.63 924.22 638.64 940.27 623.1 953.61 607.34 961.89 591.13 964.48 573.98 961.92 555.98 953.3 536.9 939.16 516.56 920.57 494.87 897.91 471.76 872.31 447.43 844.85 421.78 816.43 395.03 788.08 367.77 760.46 340.1 734.3 312.65 710.07 286.16 688.07 261.13 668.41 238.44 651.01 196.14 613.53 194.29 573.66 213.03 561.83 235.14 549.96 272.83 520.96 280.37 503.21 277.77 490.92 269.66 477.18 256.23 461.98 237.53 446.77 215.43 430.11 191.6 411.99 167.31 393.87 145.72 374.72 128.56 354.63 116.09 334.53 110.37 313.49 111.74 291.61 119.31 269.73 133.4 247.06 152.94 223.75 176.32 200.58 202.62 176.95 230.31 153.13 257.81 129.8 284.12 106.69 308.19 84.22 328.99 62.86 346.33 42.76 360.05 24.46 375.43 -2.75 405.31 10.8 424.1 -2.99 438.12 -18.86 453.51 -38.94 469.93 -62.5 486.92 -88.78 504.6 -115.98 522.7 -142.38 541.05 -166.65 559.58 -186.67 578.07 -200.78 596.62 -208.57 615.02 -208.63 633.14 -200.7 651.26 -186.35 668.68 -166.14 685.43 -141.91 702.23 -116.1 718.49 -90.11 734.31 -65.79 750.39 -45.14 766.28 -28.78 782.17 -17.37 798.62 -11.83 815.42 -11.23 832.81 -14.88 851.11 -22.92 870.35 -33.19 890.72 -44.4 912.25 -56.6 935.11 -67.34 959.3 -75.64 984.51 -81.9 1010.86 -84.29 1038.04 -82.56 1065.42 -77.44 1092.86 -68.09 1119.7 -54.91 1145.21 -38.66 1168.85 -19.35 1189.77 2.31 1207.58 25.88 1221.45 50.82 1230.73 76.49 1235.88 102.86 1236.11 129.22 1231.47 155.17 1223.57 181.03 1212.03 206.13 1197.81 230.33 1183.4 254.13 1168.9 277.01 1155.74 298.97 1146.42 320.55 1140.99 341.37 1140.41 361.49 1146.03 381.4 1157.08 400.79 1173.14 419.71 1193.88 438.56 1217.3 457.07 1241.59 475.19Q1241.6 475.2 1241.6 475.2" opacity="1.00"></path><path d="M1189.1 420.13C1230.35 452.75 1255.52 480.17 1258.89 502.38 1242.4 524.52 1206.66 541.52 1159.59 553.99 1109.91 567.56 1063.82 578.75 1026.37 589.92 1000.94 606.64 985.73 627.98 977.79 656.57 977.53 694.28 977.83 739.68 975.34 790.04 972.83 840.68 964.2 885.44 949.24 916.64 932.33 931.25 909.87 924.91 883.11 898.89 855.58 864.19 825.11 826.45 792.5 796.8 759.88 787.62 726.65 797.52 692.66 821.62 657.9 855.67 621.02 885.63 581.41 903.17 539.83 906.86 494.75 891.31 446.98 859.61 399.2 816.91 352.07 767.38 309.57 716.86 274.76 668.36 251.3 624.84 242.77 587.12 246.24 555.15 263.08 527.41 288.85 501.92 312.01 479.47 329.19 456.27 333.09 430.8 317.14 406 285.35 377.52 244.1 344.9 201.39 312.28 172.3 277.06 163.76 240.35 174.92 204.31 206.55 168.16 251.46 134.08 301.15 103.04 349.26 77.06 390.05 58.76 441.73 53.19 464.04 66.89 481.82 32.44 497.32 -8.99 518.5 -57.52 544.31 -104.16 570.83 -140.85 600.75 -157.37 633.37 -148.2 665.99 -118.55 699.76 -74.2 734.76 -26.91 770.47 11.69 808.63 36.6 849.65 45.91 892.3 38.61 938.21 23.11 986.19 6.43 1033.38 -9.95 1078.91 -16.68 1118.65 -11.64 1150.02 2.51 1169.35 28 1173.66 61.56 1166.84 100.66 1147.99 143.19 1122.21 186.15 1101.2 230.21 1088.14 272.54 1089.56 311.92 1110.69 351.23 1146.38 387.5 1189.09 420.12Q1189.1 420.13 1189.1 420.13" opacity="0.48"></path><path d="M1136.6 351.47C1173.69 380.46 1198.44 405.52 1206.36 426.99 1198.73 448.94 1174.1 468.3 1137.29 486.24 1094.31 506.44 1049.48 527.58 1007.7 551.41 972.35 580.16 944.29 613.77 923.17 652.56 909.7 695.5 900.09 741.01 891.77 785.45 882.84 840.32 849.66 867.85 821.89 833.85 801.62 802.31 776.92 769.85 747.93 744.3 718.93 735 687.02 740.6 652.61 758.16 617.99 785.93 580.64 813.55 541.19 834.55 501.93 847.84 461.58 846.88 422.12 831.98 385.75 806.33 353.74 770.8 329.2 729.64 312.33 685.45 306 641.17 311.16 599.17 322.75 559.28 341.58 522.77 363.3 489.44 378.86 458.28 386.98 428.83 383.43 400.24 364.31 372.33 333.69 344 296.6 315.01 258.35 286.02 230.44 257.73 218.16 230.95 220.96 204.86 241.33 181.56 275.12 162.48 316.59 145.56 361.6 134.32 404.94 129.53 443.03 126.84 474.38 129.48 498.83 135.68 515.63 138.83 528.01 139.98 538.38 135.45 545.2 120.16 553.53 95.12 564.94 60.57 575.85 18.32 591.1 -25.79 610.96 -64.75 630.95 -93.51 655.46 -104.99 684.45 -95.7 713.45 -70.15 745.55 -31.82 780.24 10.91 815.06 49.36 852.55 79.35 891.89 97.95 930.74 102.8 970.16 98.38 1008.02 88.91 1082.41 65.45 1078.83 115.92 1049.11 159.27 1036.57 191.58 1032.71 224.96 1041.09 257.7 1064.55 290.9 1098.34 322.46 1136.59 351.46Q1136.6 351.47 1136.6 351.47" opacity="0.36"></path><path d="M1084.1 315.57C1116.89 340.94 1140.45 365.37 1151.46 389.06 1151.02 413.27 1136.63 437.74 1110.89 463.18 1077.75 490.4 1039.49 519.98 1000.02 552.36 962.05 587.14 927.38 624.74 897.16 664.01 872.04 702.99 851.03 740.27 833.01 772.67 811.8 806.34 770.02 803.26 744.13 768.17 726.12 740.62 704.53 713.43 679.16 691.8 653.79 682.66 625.83 684.69 596 696.26 566.42 717.21 535.52 740.25 504.52 760.82 474.91 778.63 446.79 787.37 422.06 785.94 400.98 776.51 385.56 757.44 377.43 731.07 374.41 699.6 379 664.45 390.55 628.09 403.6 590.7 419.11 554.25 433.65 519.79 440.8 485.85 440.75 454.03 431.4 424.5 410.59 395.29 381.89 367.87 349.1 342.5 315.41 317.13 289.39 295 274.84 276.37 271.14 258.05 281.5 243.72 303.88 233.69 334.52 224.19 371.49 218.86 410.84 217.14 449.74 214.4 486.17 213.13 518.61 211.34 546.38 204.47 570 193.45 590.37 176.47 607.03 151.48 622.54 119.99 638.26 83.58 652.46 44.42 668.54 6.94 687.3 -23.79 705.76 -45.15 727.55 -52.33 752.92 -43.2 778.28 -21.57 806.04 10.75 835.43 48.09 864.51 84.23 894.58 116.15 924.35 140.85 952.6 155.67 978.87 162.48 1001.32 163.2 1015.75 149.94 979.38 206.45 994.9 240.92 1019.24 265.08 1050.4 290.19 1084.09 315.56Q1084.1 315.57 1084.1 315.57" opacity="0.68"></path><path d="M1031.6 336.68C1059.97 358.42 1081.62 381.71 1094.31 406.34 1099.15 431.23 1093.35 457.91 1078.09 486.31 1056.01 515.31 1027.66 546.2 995.69 578.43 962.07 610.58 928.3 642.97 896 674.02 865.63 702.36 837.78 726.73 812.53 744.95 789.68 757.1 768.61 760.95 748.67 755.69 730.08 744.44 711.44 725.92 692.16 702.25 673.25 679.26 653 657.19 631.25 639.3 609.51 630.62 587.3 629.86 565.2 636.21 543.46 650.4 522.55 667.53 503.45 684.69 464.34 715.33 458.32 681.12 473.29 646.3 482.62 619.67 491.46 591.64 497.6 563.59 496.92 534.86 490.34 507.05 477.11 480.96 456.02 454.79 429.97 430.56 401.6 408.81 372.57 387.07 349.08 368.83 333.67 353.99 325.48 339.07 327.78 327.33 339.79 318.37 358.98 308.73 385.15 300.95 415.75 294.07 448.74 284.85 482.64 274.66 515.63 262.24 547.23 245.34 576.6 224.59 603.44 199.63 628.07 170.25 650.79 137.81 672.13 104.2 692.14 71.11 711.88 41.6 731.89 19.01 751.53 4.27 772.16 0.62 793.91 9.29 815.65 27.18 837.49 53.66 858.86 85.04 879.85 117.1 899.67 148 917.36 175.2 952.16 220.68 926.87 229.94 920.28 241.08 924.21 250.37 934.28 263.25 950.86 279.37 974.66 295.75 1002.56 314.92 1031.59 336.67Q1031.6 336.68 1031.6 336.68" opacity="0.35"></path><path d="M979.1 400.53C1002.93 418.66 1022.04 438.87 1035.05 460.74 1043.16 482.58 1043.77 506.01 1037.28 530.44 1025.59 554.55 1008.1 579.18 986.35 603.41 961.78 626.32 935.05 647.67 907.57 666.18 879.7 681.74 852.37 692.98 826.27 698.81 800.88 700.54 776.88 696.35 754.39 686.25 732.55 673.31 711.8 656.23 692.08 636.51 672.58 618.35 653.71 601.14 635.59 586.8 609.21 577.5 565.71 591.77 550.03 609.16 546.65 627.01 541.28 555.2 520.71 526.06 500.72 506.42 477.93 487.29 454.1 469.17 429.81 451.05 409.39 434.79 394.43 420.25 382.12 398.74 400.62 358.91 427.92 337.78 450.89 321.51 476.54 303.57 503.42 283.56 531.07 261.02 558.55 236.15 585.05 209.41 611.07 181.29 635.81 152.76 659 125.42 681.65 100.16 703.09 79.01 723.3 63.93 743.31 54.8 762.46 53.87 780.58 61.8 798.7 76.14 814.94 97.02 829.11 122.18 843.07 148.89 854.6 176.28 863.36 202.5 874.13 236.11 879.29 281.63 874.66 294.94 866.2 309.35 884.3 337.82 908.76 354.92 930.71 367.23 954.8 382.4 979.09 400.52Q979.1 400.53 979.1 400.53" opacity="0.38"></path><path d="M926.6 464.03C963.69 493.02 984.98 525.65 987.67 558.22 977.31 588.54 950.92 614.44 915.44 630.3 874.91 638.54 832.48 632.59 793.09 612.02 753.69 588.44 718.32 559.85 689.33 534.3 633.87 544.95 613.76 577.64 600.68 556.62 576.73 537.26 543.69 511.81 506.6 482.82 468.35 453.83 443.99 424.02 437.34 393.14 443.27 360.06 465.84 322.52 498.61 280.81 537.15 236.38 578.61 190.44 617.71 150.16 657.13 119 692.66 105 721.65 114.3 750.65 139.85 770.37 180.19 781.19 225.02 792.35 266.85 796.13 303.55 795.6 333.32 800.83 355.46 809.01 374.81 824.34 394.73 852.24 412.41 888.34 435.03 926.59 464.02Q926.6 464.03 926.6 464.03" opacity="0.21"></path><path d="M874.1 484.29C919.07 538.33 870.4 558.74 831.6 535.8 804.59 518.91 779.01 499.69 757.26 481.8 727.59 471.56 693.13 482.91 681.7 490.61 670.32 495.68 656.55 494.46 639.14 486.23 615.22 477.6 587.47 462.29 559.1 440.55 530.07 418.8 509.35 392.68 498.91 363.62 494.43 334.16 500.76 301.45 515.35 267.87 534.24 235.39 557.95 204.89 582.89 180.97 608.9 163.82 634 158.12 655.74 166.8 677.49 184.68 693.83 212.72 705.51 245.55 718.25 279.23 728.48 312.69 738.09 343.22 752 370.88 768.73 396.1 789.15 419.13 815.52 440.83 845.06 462.53 874.09 484.28Q874.1 484.29 874.1 484.29" opacity="0.88"></path><path d="M821.6 447.63C865.85 482.69 837.54 465.28 794.88 429.3 765.89 420 740.72 415.59 717.26 410.63 686.53 411.61 648.68 399.89 611.6 370.9 573.35 341.9 556.13 301.12 560.52 262.15 571.79 229.1 597.04 210 626.03 219.3 655.02 244.85 682.28 289.22 709.01 334.14 742.62 378.27 783.35 418.64 821.6 447.63Q821.6 447.63 821.6 447.63" opacity="0.14"></path></g></svg>