<svg xmlns="http://www.w3.org/2000/svg" version="1.1" xmlns:xlink="http://www.w3.org/1999/xlink" xmlns:svgjs="http://svgjs.dev/svgjs" viewBox="0 0 1422 800" opacity="0.51"><defs><linearGradient x1="50%" y1="0%" x2="50%" y2="100%" id="ssscribble-grad"><stop stop-color="hsl(206, 75%, 49%)" stop-opacity="1" offset="0%"></stop><stop stop-color="hsl(331, 90%, 56%)" stop-opacity="1" offset="100%"></stop></linearGradient></defs><g fill="none" stroke-width="3" stroke="url(#ssscribble-grad)" stroke-linecap="round"><path d="M2056.22 431.33C2110.22 453.98 2119.47 475.15 2079.79 494.83 2011.2 514.49 1947.09 532.63 1917.83 549.24 1936.57 565.8 1992.08 580.82 2055.96 594.33 2097.4 607.88 2094.97 620.06 2049.02 631.06 1947.33 647.78 1918.21 680.83 1999.43 699.8 2042.64 715.11 2049.63 732.54 2015.81 752.75 1952.77 776.3 1883.31 803.36 1831.72 834.26 1814.5 868.45 1834.07 906.09 1878.57 946.65 1928.79 988.39 1961.96 1030.94 1963.61 1072.78 1930.86 1111.64 1872 1146.51 1804.24 1175.61 1742.1 1207.98 1836.75 1173.17 1807.42 1158.08 1756.42 1158.03 1693.8 1167.95 1632.48 1189.43 1583.47 1222.39 1555.04 1265.13 1549.07 1314.63 1563.35 1365.96 1589.86 1414.52 1619.01 1455.01 1647.9 1489.57 1597.79 1464.59 1524.89 1423.26 1468.26 1399.59 1414.23 1386.51 1368.07 1389.34 1332.88 1410.73 1310.82 1449.04 1301.08 1499.72 1302.55 1554.96 1311.3 1606.02 1323.42 1644.13 1336.93 1663.12 1346.96 1660.35 1351.13 1637.7 1349.06 1602.8 1338.74 1564.5 1320.57 1533.76 1295.37 1520.85 1264.14 1530.5 1228.61 1563.04 1189.36 1612.84 1148.7 1669.49 1108.08 1720.38 1067.17 1754 1028.09 1762.73 991.38 1745.06 956.1 1707.56 923.57 1660.73 893.58 1618.72 865.23 1595.39 838.97 1598.05 814.34 1627.69 790.82 1677.38 768.29 1733.66 746.29 1780.83 724.81 1805.73 703.37 1800.93 681.69 1767.82 660.14 1717.33 638.08 1664.32 615.43 1625.44 592.77 1613.74 569.79 1632.1 546.61 1674.2 523.55 1727.45 500.55 1774.44 477.9 1800.78 455.77 1798.93 434.51 1768.52 414.58 1718.17 395.76 1661.83 378.92 1614.52 364.56 1588.2 351.82 1589.07 342.01 1614.77 335.35 1656.39 328.9 1719.5 327.01 1722.51 326.05 1653.47 321.37 1596.93 312.87 1547.36 298.81 1514.5 277.72 1504.03 249.27 1515.6 213.09 1543.79 170.67 1580.8 122.9 1615.25 72.19 1637.75 22.88 1642.5 -22.51 1626.12 -60.06 1590.73 -86.41 1541.68 -99.85 1486.88 -99.58 1434.86 -50.73 1376.53 -70.12 1443.98 -145.96 1461.72 -206.19 1456.34 -263.1 1436.14 -307.07 1402.86 -330.79 1359.4 -331.34 1310.17 -310.58 1259.91 -277.5 1212.43 -242.39 1171.89 -218.14 1140.57 -216.24 1119.69 -240.86 1109.12 -290.18 1107.36 -354.07 1113.26 -418.2 1123.34 -466.62 1134.69 -487.46 1145.96 -476.93 1153.54 -440.71 1155.74 -394.87 1152.33 -357.1 1141.76 -344.55 1124.28 -366.41 1100.54 -418.91 1071.18 -487.56 1037.55 -550.49 1000.3 -587.6 961.19 -586.98 921.51 -552 881.37 -498.2 842.5 -449.89 805.56 -430.79 770.16 -451.55 737.38 -507.55 707.21 -578.34 679.15 -636.55 653.5 -658.87 629.88 -637.73 608.04 -583.66 587.63 -522.64 568.2 -485.43 549.91 -490.7 532 -538.78 514.07 -609.3 496.73 -670.38 478.95 -693.61 460.48 -668.83 442.23 -608.1 423.04 -541.78 402.77 -504.38 382.54 -514.77 361.13 -568.77 338.48 -639.49 315.83 -690.04 292.2 -695.17 267.69 -652.75 243.22 -583.27 217.97 -520.31 192.09 -493.48 166.44 -513.83 140.43 -569.4 114.31 -632.97 88.79 -672.29 63.61 -668.1 39.17 -621.35 15.89 -551.46 -6.04 -487.83 -26.14 -456.06 -44.45 -466.88 -60.33 -512 -73.38 -591.42 -88.25 -557.13 -100.7 -456.61 -100.26 -393.16 -99.66 -466.54 -109.3 -526.1 -126.94 -531.95 -146.65 -503.31 -172.73 -447.65 -205.39 -380.08 -243.67 -319.46 -286.76 -280.88 -332.95 -272.09 -379.21 -291 -423.6 -327.15 -463.2 -381.12 -506.38 -356.62 -525.87 -274.71 -505.08 -211.77 -485.89 -157.69 -467.06 -121.01 -453.28 -105.94 -449.69 -111.45 -458.47 -131.75 -481.33 -160.16 -517.64 -186.34 -564.5 -202.49 -617.21 -204.24 -669.21 -188.21 -714.38 -155.78 -746.71 -110.08 -762.44 -56.74 -760.23 -1.86 -741.83 50.01 -713.39 93.53 -681.36 126.18 -654.24 146.99 -640.76 156.46 -645.46 156.91 -670.4 149.83 -713.1 139.57 -766.89 129.38 -822.32 118.21 -883.51 133.44 -871.01 162.02 -812.24 188.63 -775.51 219.7 -754.1 253.76 -755.8 290.66 -782.72 328.44 -829.56 366.04 -885.94 404.16 -938.35 440.88 -973.84 475.81 -983.46 510.17 -965.89 542.49 -926.29 572.84 -876.59 602.48 -832.88 630.41 -808.03 656.89 -810.65 682.94 -841.46 707.89 -891.83 731.94 -947.35 755.88 -991.73 779.14 -1011.25 801.79 -999.57 824.45 -960.69 846.22 -906.53 867.03 -853.77 887.72 -818.38 907.21 -810.19 925.28 -830.6 942.93 -873.28 958.79 -923.99 972.6 -967.04 985.7 -990.05 996.49 -985.02 1004.85 -952.95 1012.63 -902.2 1018.25 -845.6 1022.08 -797.29 1026.41 -768.84 1030.16 -765.75 1034.36 -786.58 1041.39 -824.68 1050.99 -867.57 1064.58 -902.65 1083.65 -920.48 1108.5 -914.46 1139.9 -884.96 1177.14 -837.61 1220.07 -781.78 1267.41 -728.44 1315.85 -687.36 1363.85 -665.25 1408.13 -664.03 1444.87 -681.93 1472.06 -711.91 1487.34 -745.22 1486.77 -781.76 1436.32 -747.85 1414.79 -680.25 1416.05 -626.41 1433.07 -575.06 1467.23 -532.4 1515.79 -502.76 1573.72 -488.23 1633.21 -488.04 1709.08 -538.78 1628.45 -555.03 1625.37 -511.66 1657.26 -470.69 1711.07 -424.56 1776.33 -376.75 1837.67 -329.77 1881 -287.03 1895.8 -250.46 1880.82 -221.08 1842.97 -199.62 1797.32 -185.54 1763.58 -178.55 1756 -176.77 1782.05 -178.43 1837.1 -183.07 1905.85 -187.89 1967.17 -191.38 2001.53 -193.69 1998.82 -192.56 1962.1 -187.49 1909.2 -179.14 1862.85 -166.46 1845.19 -149.8 1867.59 -129.81 1924.14 -106.58 1994.95 -80.79 2052.86 -52.7 2075.5 -23.1 2054.53 7.36 2001.7 39 1941.58 70.7 1903.56 102.02 1908.1 133.74 1955.11 164.66 2025.32 194.56 2087.54 224.49 2113.47 253.27 2091.14 280.84 2032.68 308.35 1966.58 334.66 1926.41 359.74 1933.79 384.79 1985.47 408.66 2056.19 431.32Q2056.22 431.33 2056.22 431.33" opacity="0.85"></path><path d="M2003.72 317.2C2056.29 338.95 2068.1 359.83 2034.12 379.89 1970.29 400.01 1905.34 419.44 1867.87 438.33 1873.78 457.48 1918.46 476.36 1980.34 495.21 2031.83 514.67 2048.58 534.52 2022.73 555.1 1964.26 576.77 1896.09 599.66 1844.49 624.15 1828.24 650.15 1850.9 678.13 1900.24 708.3 1955.1 740.02 1990.84 773.89 1992.03 809.72 1956.64 846.29 1895.54 883.95 1828.94 921.99 1777.76 958.78 1756.97 994.21 1769.72 1027.08 1808.72 1056.01 1856.47 1080.43 1894.01 1099.27 1907.33 1112.33 1888.94 1119.09 1842.7 1119.54 1780.01 1115.43 1717.07 1106.99 1668.93 1095.86 1645.56 1085.42 1649.52 1076.77 1675.19 1072.47 1712.96 1075.55 1748.38 1086.91 1769.54 1107.8 1769.42 1138.25 1745 1177.19 1700.28 1222.59 1642.7 1270.79 1582.89 1318.47 1530.73 1361.41 1529.32 1378.89 1525.82 1331.37 1464.41 1371.79 1413.69 1416.63 1361.94 1468.61 1313.44 1520.53 1270.75 1564.51 1236.95 1594.16 1212.72 1605 1198.08 1596.82 1191.75 1572.13 1191.59 1537.28 1200.22 1488.52 1217.32 1489.16 1216.37 1551.33 1210.52 1605.51 1199.59 1656.26 1184.02 1692.98 1164.61 1708.34 1141.55 1699.39 1115.77 1669.05 1087.49 1626.62 1057.8 1583.01 1027.52 1550.59 996.09 1539.71 964.99 1553.96 934.68 1591.14 904.04 1642.77 874.61 1695.82 846.6 1736.55 818.56 1754.54 792.03 1744.73 767.09 1709.8 742.16 1660.39 718.8 1609.87 697.05 1572.94 675.31 1561.11 655.43 1577.06 637.41 1615.65 619.4 1666.25 603.26 1713.5 588.95 1744 574.6 1749.71 561.98 1728.19 550.91 1685.07 539.51 1631.43 529.24 1580.5 519.65 1544.45 508.93 1531.53 497.96 1543.22 485.99 1574.8 471.51 1617.66 454.7 1658.99 434.65 1687.55 410.77 1696.03 382.67 1680.7 349.91 1644.32 313.43 1594.06 272.95 1539.85 229.32 1492.1 185.12 1459.36 140.95 1446.49 99.07 1453.7 62.5 1477.89 32.61 1511.19 11.54 1544.76 -0.61 1576.85 29.43 1530.67 55.46 1460.88 66.21 1408.43 67.55 1360.48 55.81 1322.74 29.23 1299.02 -11.23 1290.59 -62.67 1295.98 -118.82 1312.77 -173.48 1335.39 -219.11 1358.43 -254.58 1383.24 -211.51 1362.06 -165.06 1314.04 -147.45 1271.05 -149.44 1224.18 -175 1177.1 -221.84 1132.52 -282.2 1093.65 -344.16 1062.19 -391.17 1025.38 -288.18 1039.9 -321.82 1047.89 -378.76 1049.53 -445.07 1046.43 -501.76 1038.3 -532.21 1025.69 -528.25 1008.14 -493.01 986.27 -442.35 960.61 -396.3 931.85 -375.04 900.91 -390.36 867.86 -439.32 833.96 -506.45 799.9 -568.06 765.25 -602.06 731.32 -596.16 698.44 -554.92 665.85 -496.13 634.64 -446.05 604.86 -428.6 575.62 -452.75 547.76 -510.61 521.16 -578.87 495.02 -628.9 469.92 -639.11 445.73 -605.94 421.78 -544.25 398.51 -482.59 375.83 -450.79 353.2 -463.7 331.03 -516.27 309.29 -584.3 287.54 -634.9 266.48 -644.69 246.15 -609.6 225.89 -545.23 206.48 -480.45 188.08 -443.52 169.91 -449.3 152.96 -493.18 137.39 -580.4 115.52 -568.3 81.04 -471.13 68.66 -452.43 50.43 -547.42 22.1 -471.97 5.37 -404.94 -10.43 -351.15 -30.09 -325.75 -54.2 -334.07 -82.79 -369.11 -115.91 -415.35 -153.26 -455.65 -193.38 -473.26 -235.73 -460.6 -278.81 -419.35 -320.13 -359.31 -358.48 -295.54 -391.76 -236.44 -435.04 -328.76 -401.69 -316.59 -380.34 -279.22 -374.78 -226.34 -378.7 -167.21 -394.19 -110.72 -421.83 -65.86 -460.28 -37.65 -506.89 -27.99 -557.05 -34.78 -606.08 -52.91 -648.54 -88.73 -687.88 -114.23 -670.81 -85.42 -628.74 -49.49 -601.71 -4.79 -583.32 44.43 -579.41 95.18 -593.61 142.77 -625.31 184.45 -671.06 218.93 -724.03 244.73 -775.89 262.27 -817.78 266.51 -755.51 279.47 -786.29 299.96 -865.84 317.5 -907.77 337.84 -928.87 360.28 -924.34 384.49 -896.7 409.86 -853.16 435.75 -805.89 462.53 -769.14 489.16 -752.96 515.24 -762.97 541.63 -797.76 567.11 -848.26 591.45 -901.04 615.86 -941.81 638.99 -958.88 660.73 -947.07 682.48 -910.14 702.59 -858.52 721.13 -806.93 739.75 -769.81 756.93 -756.74 772.89 -770.41 789.18 -806.84 804.59 -854.54 819.53 -899.79 835.34 -930.62 851.35 -937.48 868.15 -918.21 886.72 -877.4 907.02 -824.4 929.75 -771.62 955.15 -730.91 983.74 -710.63 1015.92 -713.71 1050.82 -738.15 1089.05 -775.69 1130.12 -815.73 1171.93 -848.42 1214.47 -864.09 1256.1 -858.18 1294.13 -831.1 1327.71 -787.09 1354.79 -734.22 1353.79 -657.03 1344.69 -723.88 1392.65 -696.87 1439.99 -659.3 1494.42 -612.12 1550.02 -561.15 1599.26 -511.84 1636.54 -469.76 1656.73 -438.55 1658.36 -420.27 1642.68 -414.9 1614.7 -420.48 1571.54 -444.16 1576.89 -491.57 1646.14 -495.14 1707.7 -484.91 1766.85 -464.53 1811.07 -435.28 1831.25 -398.64 1824.29 -357.05 1794.08 -313.09 1752.96 -268.45 1714.78 -225.91 1694.56 -187.17 1702.93 -152.98 1740.77 -124.55 1800.46 -101.9 1906.24 -69.9 1798 -58.99 1807.6 -56.72 1858.59 -53.96 1925.95 -48.78 1986.49 -41.06 2018.79 -31.77 2011.8 -19.88 1969.54 -5.63 1911.72 10.14 1863.12 27.89 1846.39 47.23 1871.43 67.66 1929.49 89.19 1997.75 111.43 2048.01 134.29 2059.16 157.46 2026.55 180.67 1966.08 204.14 1904.96 227.37 1872.03 250.2 1883.97 273.09 1935.66 295.45 2003.69 317.19Q2003.72 317.2 2003.72 317.2" opacity="0.32"></path><path d="M1951.22 326.37C2002.28 347.21 2016.41 368.8 1987.96 391.16 1929.34 413.57 1864.86 436.82 1820.81 460.99 1814.57 485.33 1847 510.71 1903.16 537.22 1959.88 564.01 1992.53 592.01 1987.53 621.23 1946.16 650.68 1883.03 681.26 1820.83 712.81 1780.99 744.19 1775.94 776.11 1804.57 808.14 1854.7 839.11 1905.15 869.32 1936.12 898.11 1935.69 924.53 1901.7 948.39 1844.19 968.94 1736.7 1001.98 1831.98 999.44 1842.03 988.47 1812.43 983.42 1761.14 981.26 1700.04 983.76 1642.15 992.94 1599.79 1009.17 1579.92 1033.15 1584.21 1064.58 1607.6 1102.61 1640.87 1145.66 1674.57 1190.82 1697.34 1235.74 1702.27 1277.2 1686.83 1311.82 1651.88 1337.34 1602.88 1351.73 1546.62 1354.81 1491.82 1346.88 1445.64 1329.91 1410.16 1276.87 1471.99 1322.69 1479.1 1391.83 1469.06 1441.94 1447.15 1487.45 1415.18 1522.19 1375.02 1541.73 1330.09 1543.84 1283.62 1529.11 1237.42 1502.23 1194.86 1468.73 1157.57 1436.39 1126 1413.95 1101.14 1406.82 1082.49 1418.62 1069.8 1449.26 1061.76 1494.21 1056.95 1546.07 1046.6 1576.66 1007.14 1502.01 984.86 1556.76 968.5 1608.35 950.7 1656.9 931.81 1690.78 912.49 1702.1 892.5 1687.83 872.08 1651.54 851.55 1603.44 830.82 1555.45 809.98 1520.44 789.14 1508.53 768.44 1522.19 747.81 1557.29 727.06 1604.97 706.16 1651.83 684.89 1685.59 663.18 1698.1 640.69 1685.35 617.08 1650.4 592.6 1601.56 566.52 1549.9 538.52 1506.96 509.33 1482 477.97 1479.37 444.38 1498.06 409.88 1533.04 373.58 1574.28 335.97 1611.27 298.93 1635.52 262.07 1639.99 226.6 1623 194.41 1587.36 165.89 1539.22 142.47 1487.29 134.22 1448.35 156.31 1514.08 128.85 1478.63 95.49 1437.48 52.19 1389.16 1.77 1339.61 -50.46 1294.22 -100.11 1257.98 -141.55 1233.78 -120.28 1278.32 -140.3 1282.43 -222.65 1236.57 -280.53 1196.81 -327.82 1153.5 -355.29 1109.42 -358.6 1066.43 -338.7 1027.21 -302.5 993.25 -247.93 954.6 -263.25 917.91 -345.42 915.19 -439.73 923.92 -329 919.82 -332.33 905.77 -376.84 892.71 -439.96 876.6 -501.85 857.89 -542.23 837.06 -548.04 814.31 -518.13 790.19 -465.85 764.71 -411.72 738.52 -378.4 712.07 -381.43 684.92 -421.18 657.97 -484.01 631.5 -546.26 604.75 -583.83 578.75 -581.71 553.63 -541.78 528.44 -480.42 504.25 -423.88 481.14 -397.53 458.02 -412.71 436.01 -463.77 415.17 -529.08 394.33 -579.47 374.9 -593.46 356.86 -565.59 338.81 -507.18 322.11 -442.44 306.71 -397.48 291.23 -389.43 276.94 -419.71 263.72 -503.4 243.86 -543.01 206.13 -461.16 186.64 -398.01 172.18 -355.41 156.72 -346.3 139.75 -371.76 120.64 -419.42 99.34 -469.78 75.42 -504.05 48.91 -507.7 19.5 -478.11 -12.85 -423.29 -47.29 -359.06 -84.01 -303.56 -122.41 -271.22 -160.86 -268.83 -199.12 -293.25 -235.92 -334.74 -269.48 -377.12 -299.08 -405.59 -323.38 -410.57 -341.52 -387.87 -352.85 -342.01 -356.99 -282.58 -355.15 -222.72 -347.5 -174.54 -335.51 -174.26 -307.07 -258.36 -354.48 -229.6 -412.62 -187.33 -458.79 -134.65 -506.42 -79.16 -551.25 -27.44 -588.82 13.81 -615.86 41.13 -629.74 53.19 -630.15 51.4 -617.82 39.39 -595.61 -7.42 -538.47 22.71 -610.41 75.97 -685.68 119.11 -732.67 164.2 -768.43 208.71 -787.39 251.64 -787.5 290.38 -769.5 324.07 -737.92 352.74 -701.27 375.86 -667.55 394.06 -645.45 407.6 -641.99 417.64 -659.12 425.35 -695.13 430.42 -743.88 434.84 -795.98 439.49 -840.89 443.36 -869.51 448.53 -875.88 455.37 -858.97 462.42 -824.08 471.47 -779.51 482.55 -736.77 494.05 -707.92 507.47 -700.29 522.66 -716.92 538.13 -754.79 555.13 -804.76 573.5 -854.54 591.97 -891.73 611.64 -906.46 632.48 -894.57 653.32 -859.56 675.08 -810.52 697.78 -760.33 720.56 -721.94 744.45 -704.54 769.57 -711.73 794.98 -741.48 821.86 -784.91 850.32 -830.39 879.22 -866.87 909.81 -884.12 942.07 -877.64 974.53 -848.76 1008.32 -803.31 1043.02 -751.13 1076.95 -703.14 1110.74 -668.88 1143.49 -654.32 1173.59 -661.45 1200.96 -686.54 1224.42 -722.37 1249.93 -775.95 1264.99 -791.48 1255.72 -740.47 1246.41 -691.17 1236.04 -639.88 1227.11 -594.41 1223.49 -561.08 1226.37 -543.8 1238.13 -543.17 1260.27 -557.73 1292.72 -582.29 1334.66 -610.71 1382.84 -637.62 1434.28 -656.22 1484.31 -662.42 1527.32 -654.57 1559.53 -632.07 1577.3 -597.2 1579.8 -553.36 1567.76 -505.24 1544.63 -457.72 1517.74 -414.76 1493.02 -380.17 1478.06 -355.93 1479.67 -342.99 1500.21 -340.54 1539.48 -346.57 1592.4 -359.44 1651.26 -375.14 1705.98 -390.48 1755.97 -407.52 1716.98 -397.09 1660.54 -366.49 1636.38 -336.87 1634.62 -302.04 1659.76 -263.79 1708.39 -223.17 1770.16 -182.37 1830.25 -142.87 1873.26 -105.12 1888.66 -70.68 1873.29 -40.02 1834.76 -13.09 1786.66 9.75 1747.11 28.91 1732.78 44.48 1750.84 57.18 1798.65 67.76 1919.81 89.24 1810.38 120.48 1800.65 134.53 1842.38 144.6 1905.8 156.25 1967.43 169.44 2003.84 182.9 2000.92 197.81 1960.1 214.07 1899.49 230.49 1844.19 248.12 1818.39 266.88 1834.45 285.68 1885.88 305.52 1951.19 326.36Q1951.22 326.37 1951.22 326.37" opacity="0.51"></path><path d="M1898.72 445.17C1948.21 465.11 1964.37 486.03 1941.26 507.89 1888.22 529.71 1825.43 552.4 1776.48 575.85 1759.24 599.15 1778.74 623.05 1826.06 647.36 1883.18 671.29 1927.25 695.32 1941.53 719.15 1920.51 742.19 1870.35 764.58 1807.7 785.9 1737.3 815.02 1779.34 860.72 1850.24 875.62 1879.86 882.55 1880.5 886.65 1850.81 887.99 1798.27 888.05 1736.8 886.18 1682.36 883.03 1644.29 879.64 1716.37 884.98 1770.27 900.07 1785.01 917.43 1774.98 940.56 1741.33 969.6 1690.21 1003.73 1631.9 1042.28 1577.6 1083.85 1536.52 1125.96 1515.03 1167.03 1514.18 1204.61 1531.64 1236.19 1560.1 1260.14 1590.96 1274.86 1623.63 1278.1 1587.62 1236.11 1522.32 1206.67 1469.71 1192.92 1418.41 1187.19 1373.8 1192.26 1339.43 1209.77 1317.87 1239.14 1308.98 1278.61 1311.85 1324.46 1323.02 1372.26 1338.63 1416.73 1371.16 1465.61 1321.22 1382.79 1270.59 1351.88 1231.17 1350.25 1190.31 1365.7 1149.76 1397.47 1109.8 1441.5 1072.58 1491.17 1038.74 1538.43 1007.91 1575.41 980.97 1595.84 957.6 1596.33 937.41 1578.08 920.07 1545.01 904.88 1504.67 885.98 1454.08 853.15 1461.92 836.54 1523.85 825.67 1573.56 813.61 1616.58 800.16 1643.41 786.82 1648.43 771.92 1630.26 755.37 1593.07 738.85 1546.5 720.63 1501.05 700.7 1467.94 680.76 1456 659.35 1467.49 636.5 1499.14 613.68 1543.7 589.46 1589.55 563.97 1625.67 538.6 1644.08 512.12 1639.71 484.75 1613.48 457.84 1571.16 430.48 1521.49 403.12 1474.76 376.92 1440.34 351.51 1424.41 327.58 1428.93 305.87 1452.2 286.65 1487.5 270.68 1526.25 253.46 1570.75 244.08 1550.85 250.61 1488.95 256.61 1439.25 263.36 1392.83 269.12 1356.4 270.87 1334.74 268.08 1329.67 258.84 1339.93 241.57 1362.68 216.02 1391.73 182.06 1420.73 141.38 1444.61 95.44 1457.52 47.1 1456.56 0.76 1441.21 -40.59 1412.24 -73.12 1372.88 -93.87 1327.1 -101.41 1279.91 -95.56 1235.99 -79.47 1199.03 -56.11 1172.03 -30.85 1156.18 -11.1 1151.76 -1.45 1157.01 -6.72 1169.33 -29.31 1186.65 -68 1204.7 -118.92 1220.28 -174.64 1231.68 -227.31 1235.8 -268.31 1231.58 -291 1219.03 -292.38 1198.03 -273.47 1169.79 -241.34 1135.55 -204.51 1097.31 -174.14 1057.09 -161.24 1016.12 -171.25 976.66 -205.29 940.07 -257.67 906.88 -317.83 878.25 -372.32 854.35 -408.36 835.18 -418 820.45 -399.84 809.49 -356.84 791.11 -485.28 770.58 -429.56 757.28 -355.63 740.63 -368.92 697.61 -457.32 672.32 -510.48 654.58 -534.88 636.06 -521.58 616.99 -476.58 597.67 -416.77 578.03 -365.72 558.21 -344.6 538.33 -361.78 518.39 -411.27 498.46 -473.83 478.52 -523.75 458.83 -541.49 439.34 -520.63 419.79 -468.82 400.32 -405.87 380.81 -355.12 361.05 -334.61 341.03 -350.39 320.53 -395.74 299.52 -451.96 277.74 -497.38 254.94 -515.4 231.33 -498.04 206.41 -450.73 179.99 -388.6 152.61 -331.36 123.61 -296.22 92.99 -292.79 61.65 -319.42 28.97 -364.74 -4.72 -412.96 -38.23 -446.01 -71.87 -452.19 -104.97 -428.43 -136.22 -379.93 -165.53 -319.44 -191.97 -237.93 -240.64 -337.06 -248.8 -345.47 -234.44 -319.74 -224.95 -274.32 -216.9 -218.11 -212.3 -161.1 -213.71 -113.78 -221.8 -83.21 -237.77 -72.82 -262.07 -81.39 -294.14 -103.73 -332.88 -133.77 -375.8 -162.2 -420.6 -181.73 -464.06 -187.95 -502.51 -177.33 -533.27 -150.58 -553.7 -110.36 -562.71 -61.57 -559.93 -10 -546.51 39.62 -526.13 81.87 -501.81 113.72 -478.19 137.79 -457.26 122.97 -495.17 101.11 -554.81 87.38 -603.11 78.7 -650.7 76.71 -691.24 81.56 -719.29 94.42 -731.23 114.58 -725.8 141.26 -705.59 173.12 -674.6 208.46 -639.52 246.72 -608.97 285.68 -589.26 324.01 -585.91 361.91 -601.6 397.52 -634.53 430.43 -679.87 461.28 -729.87 489.13 -775.55 514.27 -808.32 537.25 -822.35 558.03 -815.03 577.15 -788.31 594.75 -749.28 611.41 -706.39 627.62 -669.91 643.02 -649.51 658.55 -650.03 674.58 -672.38 690.27 -712.44 706.8 -761.27 724.36 -807.82 741.85 -841.48 760.53 -853.99 780.46 -842.07 800.4 -808.96 821.35 -762.51 843.23 -713.93 865.04 -674.75 887.62 -653.58 910.76 -654.65 933.56 -677.52 956.57 -715.64 979.41 -759.51 1001.43 -799.38 1022.7 -825.04 1042.69 -830.48 1061.17 -814.47 1077.65 -779.52 1091.57 -732.61 1103.34 -682.78 1112.04 -639.32 1117.36 -609.81 1120.62 -599.04 1120.79 -607.36 1118.28 -631.37 1110.64 -715.89 1139.73 -674.7 1177.78 -603.51 1212.49 -556.52 1253.43 -517.79 1298.9 -491.6 1345.43 -480.36 1390.85 -483.63 1431.65 -498.74 1481.1 -564.3 1425.91 -556.8 1402.6 -503.22 1403.19 -459.03 1419.31 -413.33 1451.66 -369.81 1497.31 -331.26 1551.24 -300.36 1606.14 -278.32 1630.92 -293.03 1609.18 -316.18 1685.63 -297.74 1745.04 -277.63 1795.19 -252.27 1824.56 -222.75 1827.26 -189.68 1803.98 -154.53 1762.77 -118.44 1718.5 -81.64 1685.42 -45.65 1676.26 -11.17 1697.05 22.03 1743.88 52.91 1805.06 81.36 1863.33 107.75 1902.09 131.72 1909.91 153.53 1886.04 173.43 1839.19 191.65 1786.55 208.6 1748.73 224.18 1739.96 239.06 1765.67 253.61 1818.77 267.37 1881.76 281.26 1932.97 295.57 1954.6 309.5 1939.01 324.14 1892.22 339.66 1833.21 355.04 1784.38 371.46 1765.5 389.01 1785.21 406.52 1836.13 425.23 1898.69 445.16Q1898.72 445.17 1898.72 445.17" opacity="0.52"></path><path d="M1846.22 496.7C1894.06 515.73 1912.01 534.38 1893.98 552.62 1846.76 570.79 1786.76 588.44 1734.65 605.45 1707.91 622.24 1714.52 638.2 1750.72 653.15 1828.93 674.34 1867.97 709.02 1798.44 721.9 1700.08 738.47 1806.42 752.38 1825.76 757.38 1802.97 763.12 1757.42 770.78 1700.07 781.11 1643.96 795.05 1601.74 812.64 1581.43 834.35 1585.74 860.15 1610.49 890.02 1646.83 923.66 1684.82 959.83 1712.58 998.07 1722.25 1037.09 1710.61 1074.86 1678.23 1110.35 1630.78 1141.8 1575.88 1167.53 1523.02 1186.53 1480.19 1197.76 1448.14 1199.46 1484.58 1163.6 1524.71 1137.9 1550.74 1121.22 1516.61 1140.87 1459.25 1183.27 1411.69 1222.56 1363.16 1266.72 1317.92 1311.92 1278.76 1353.58 1248.65 1387.9 1228.43 1411.26 1217.47 1420.13 1238.1 1364.27 1255.5 1321.7 1268.2 1295.84 1260.61 1332.68 1238.43 1393.36 1216.82 1440.84 1190.98 1485.34 1162.06 1520.08 1130.28 1539.99 1097.22 1542.11 1063.82 1526.55 1029.68 1497.48 996.43 1460.37 964.52 1423 933.08 1394.17 903.42 1379.73 875.56 1383.75 848.51 1406.83 823.15 1445.06 799.29 1491.64 776.08 1537.85 754.04 1574.56 732.95 1594.33 712.18 1593.54 692.06 1572.06 672.4 1534.43 652.83 1489.57 633.56 1446.69 614.53 1415.44 595.51 1403.52 576.95 1412.97 558.93 1441.25 541.01 1482.49 523.8 1526.79 507.5 1564.36 491.53 1587.7 476.78 1591.05 463.49 1573.69 450.85 1539.16 440.01 1493.88 431.17 1446.5 410.6 1441.01 395.29 1521.29 380.14 1484.29 363.82 1442.92 342.32 1395.97 315.14 1350.03 282.87 1311.05 245.65 1283.79 204.46 1270.71 161.87 1272.49 119 1286.8 78.35 1309.75 43.03 1337.4 14.72 1363.62 -4.4 1383.62 -13.5 1394.4 -12.22 1392.83 -1.36 1378.42 15.57 1352.26 36.33 1316.47 56.66 1274.53 70.9 1229.85 76.04 1186.58 68.62 1148.07 46.88 1116.74 11.67 1094.44 -34.45 1081.6 -86.02 1078.2 -137.36 1082.57 -181.59 1092.58 -153.14 1134.07 -159.08 1067.21 -238.93 1017.93 -293.68 981.58 -336.14 944.55 -357.42 908.02 -354.09 872.27 -328.1 838.73 -287.48 807.91 -245.61 779.7 -214.79 754.71 -205.94 732.8 -224.42 713.82 -267.22 697.52 -324.72 683.42 -405.36 653.06 -280.77 616.01 -276.08 602.78 -313.46 593.82 -370.22 583.7 -428.86 572.36 -470.64 560.99 -481.93 548.32 -458.96 534.36 -410.61 520.35 -353.45 505.06 -308.14 488.51 -292.02 471.95 -310.93 454.15 -358.77 435.12 -418.56 416.09 -467.76 396.06 -488.76 375.05 -474.59 354.01 -429.85 331.97 -370.25 308.92 -316.04 285.82 -285.01 261.69 -286.38 236.56 -318.86 211.42 -369.66 185.33 -420.62 158.4 -454.8 131.64 -459.49 104.28 -432.68 76.57 -382.02 49.47 -322.11 22.49 -269.95 -3.92 -239.53 -28.97 -237.82 -52.75 -262.73 -74.71 -305.55 -94.39 -351.12 -111.48 -384.8 -125.47 -396.4 -136.54 -380.66 -144.12 -340.8 -148.04 -285.71 -149.35 -228.06 -147.51 -180.44 -143.01 -183.16 -127.99 -283.17 -140.09 -258.31 -168.47 -217.21 -195.88 -165.27 -229.11 -111.04 -267.15 -62.24 -307.85 -26.05 -349.61 -6.1 -389.98 -3.44 -426.1 -15.47 -456 -37.27 -477.55 -76.26 -490.68 -106.82 -459.24 -81.37 -426.95 -48.09 -407.47 -6.18 -393.52 40.26 -388.51 87.98 -395.26 132.47 -414.18 170.83 -444.77 201.47 -484.59 222.95 -529.93 235.62 -576 211.78 -620.45 210.67 -530.95 233.25 -546.19 253.71 -577.64 277.55 -620.41 303.84 -668.09 332.5 -712.99 362.28 -747.68 392.43 -766.19 423.49 -765.93 454.01 -747.09 483.6 -713.7 513.26 -673.67 541.62 -634.86 568.56 -605.91 595.3 -594.11 620.62 -602.13 644.55 -629.22 668.3 -670.56 690.79 -717.7 712.08 -760.85 733.32 -791.04 753.45 -801.47 772.47 -789.57 791.5 -758.32 809.2 -714.48 825.55 -667.71 849.27 -616.01 888.87 -631.28 904.37 -687.92 917.85 -744.81 936.81 -761.8 943.5 -712.59 948.58 -666.15 953.69 -619.13 959.55 -579.32 967.78 -553.01 978.1 -543.56 991.4 -551.1 1008.62 -573.48 1029.95 -604.8 1055.93 -638.33 1086.16 -668.1 1120.78 -687.31 1159.27 -692.05 1199.6 -681.16 1241.23 -655.08 1282.28 -617.17 1319.93 -572.07 1352.9 -525.47 1378.98 -482.88 1364.08 -461.41 1336.31 -526.58 1377.52 -513.5 1420.22 -490.85 1470.14 -459.27 1521.87 -421.27 1568.61 -379.25 1604.99 -336.48 1626.07 -295.75 1629.85 -259 1616.77 -228.37 1590.45 -204.82 1543.63 -184.43 1515.18 -183.95 1561.57 -195.72 1613.01 -205.42 1669.74 -213.83 1720.99 -219.7 1763.1 -222.57 1707.08 -200.08 1646.76 -174.84 1622.38 -153.04 1621.36 -128.14 1646.89 -100.91 1694.51 -71.5 1753.26 -40.97 1808.44 -9.97 1845.73 21.75 1855.59 53.07 1835.92 83.59 1794.5 113.91 1744.5 143.02 1702.9 170.82 1685.14 198.03 1698.04 223.89 1739.55 248.48 1797.85 272.48 1855.12 295.38 1893.19 317.34 1900.16 338.89 1873.82 359.72 1823.38 379.99 1767.54 400.05 1725.64 419.73 1713.35 439.14 1736.24 458.49 1786.4 477.67 1846.19 496.69Q1846.22 496.7 1846.22 496.7" opacity="0.18"></path><path d="M1793.72 404.22C1839.84 422.34 1859.31 439.22 1846.08 454.87 1804.83 470.52 1748.57 484.95 1695.01 498.17 1660.55 511.42 1654.98 523.49 1678.7 534.47 1723.91 545.56 1775.1 555.67 1815.95 564.96 1834.2 574.6 1823.18 583.7 1785.71 592.52 1731.73 602.15 1675.5 611.97 1631.34 622.38 1609.83 634.25 1614.83 647.33 1642.72 662.04 1684.97 678.89 1728 697.94 1759.26 719.53 1770.24 743.57 1756.37 770.28 1720.22 799.66 1669.09 830.92 1613.68 864.19 1565.09 898.9 1532.12 933.67 1519.95 968.28 1528.48 1001.66 1554.15 1032.29 1588.56 1059.6 1622.47 1082.42 1653.28 1105.79 1602.42 1113.7 1532.03 1100.12 1480.43 1087.2 1434.34 1072.82 1399.13 1059.09 1375.06 1046.51 1409.03 1065.09 1443.96 1101.73 1463.71 1136.22 1474.91 1176.09 1475.28 1218.65 1464.27 1260.32 1441.84 1298.07 1409.93 1328.56 1370.62 1349.25 1327.36 1358.53 1283.38 1355.83 1240.75 1342.85 1202.63 1321.42 1170.59 1295.07 1136.34 1258.15 1111.46 1238.65 1114.62 1270.08 1120.67 1306.49 1127.08 1349.89 1132.54 1395 1135.04 1465.62 1097.02 1393.82 1071.22 1346.09 1051.38 1328.39 1030.08 1326.4 1007.87 1341.63 984.58 1372.49 961.04 1414.03 937.65 1459.36 913.77 1500.71 890.45 1530.61 867.93 1543.5 845.25 1537.45 823.57 1513.27 803.01 1475.63 782.42 1432.67 763.04 1392.35 744.91 1362.94 726.79 1351.09 710.15 1358.63 694.95 1383.63 679.71 1421.43 665.84 1463.67 653.22 1501.84 640.44 1529.05 628.72 1539.28 617.84 1530.56 606.47 1504.62 595.54 1465.69 584.65 1420.59 572.69 1376.93 560.11 1341.76 546.4 1320.31 530.8 1315.6 513.27 1327.07 493.29 1351.53 470.73 1384.52 445.21 1418.89 416.47 1448.18 385.35 1467.59 351.41 1472.67 315.13 1462.16 278.27 1437.24 240.84 1400.76 204.18 1357.46 170.43 1312.56 140.23 1271.55 115.21 1238.88 134.09 1295.63 94.89 1248.79 31.97 1189.58 -16.17 1147.65 -63.75 1107.77 -105.54 1072.38 -93.87 1019.77 -59.42 1054.33 -118.87 1061.45 -171.65 1060.69 -224.27 1054.63 -267.48 1043.38 -293.55 1027.4 -298.24 1006.84 -281.44 982.51 -249.01 954.84 -209.07 924.86 -172.68 893.47 -151.27 860.79 -151.43 828.08 -175.69 795.98 -220.24 764.22 -275.81 733.89 -329.83 705.21 -369.5 677.74 -385.52 652.13 -374.23 628.31 -340.3 605.86 -293.51 585 -248.16 565.49 -219.32 547.1 -216.13 529.69 -241.37 512.98 -289.21 497.03 -346.57 481.41 -397.09 465.88 -426.12 450.76 -425.01 435.46 -394.14 419.79 -344.17 404.3 -290.61 388.26 -251.18 371.59 -239.77 354.96 -260.14 337.6 -306.27 319.48 -363.27 301.36 -411.51 282.69 -435.29 263.53 -427.41 244.41 -390.01 224.89 -335.1 205.08 -279.7 185.45 -240.48 165.72 -228.48 146.07 -246.61 126.84 -287.66 107.99 -337.92 89.77 -382.17 72.3 -405.74 55.83 -401.25 40.67 -369.52 26.63 -318.49 14.27 -261.55 3.84 -269.57 -17.37 -280.31 -16.27 -202.39 -18.46 -149.94 -23.88 -109.74 -32.65 -88.12 -45.52 -87.54 -63.13 -105.37 -85.49 -135.27 -112.65 -170.05 -143.94 -199.93 -178.9 -217.66 -216.52 -219.16 -254.87 -202.25 -292.86 -169.07 -328.65 -123.86 -360.11 -73.09 -385.95 -23.53 -404.63 29.98 -371.96 -27.55 -328.47 -15.72 -354.43 6.1 -385.04 36.95 -423.37 74.3 -466.38 116.22 -509.91 159.32 -549.98 201.03 -582.43 239.99 -604 273.83 -612.61 301.71 -607.65 323.43 -591.15 338.86 -565.6 348.81 -535.46 354.08 -495.67 348.23 -484.38 343.76 -524.37 341.29 -565.43 341.01 -610.81 343.24 -654.03 350.23 -699.18 379.93 -687.08 401.36 -636.75 417.5 -598.64 434.96 -565.87 453.3 -545.24 472.36 -541.82 491.84 -556.5 511.42 -587.28 531.3 -629.04 550.97 -673.99 570.23 -713.61 589.56 -740.43 608.33 -748.9 626.45 -737.07 644.57 -707.66 661.83 -666.42 678.3 -621.65 702.78 -568.74 749.63 -567.66 773.11 -616.41 789.52 -656.43 806.55 -691.81 824.58 -715.69 843.85 -723.93 864.67 -714.12 887.43 -687.8 911.85 -649.19 938.56 -604.24 967.7 -559.91 998.35 -522.72 1031.16 -497.74 1065.79 -487.74 1100.64 -493.46 1136.01 -512.3 1170.9 -539.94 1203.44 -571.77 1233.35 -601.15 1259.24 -622.81 1279.9 -633.44 1294.65 -630.1 1302.7 -612.75 1304.58 -583.16 1300.06 -544.42 1289.96 -500.91 1277.12 -457.02 1262.43 -417.37 1248.44 -385.52 1237.31 -358.82 1269.07 -373.04 1317.65 -401.79 1360.55 -422.94 1407.85 -440.81 1455.33 -452.71 1497.78 -457.38 1531.37 -452.94 1552.32 -439.32 1558.93 -417.23 1551.1 -387.77 1530.92 -352.89 1503.97 -314.3 1475.2 -274.52 1451.38 -235.67 1439.6 -199.11 1443.47 -166.75 1465.12 -139.52 1503 -117.89 1552.41 -102.09 1606.05 -91.69 1636.3 -99.38 1585.73 -107.38 1651.03 -97.87 1707.27 -88.05 1758.03 -75.31 1791.45 -60 1800.09 -42.55 1782.45 -23.09 1744.04 -2.09 1697.33 20.37 1655.74 43.77 1632.63 67.69 1636.76 92.42 1668.14 117.19 1719.38 141.73 1776.63 166.62 1823.85 190.98 1847.31 214.65 1840.63 238.43 1805.88 261.4 1754.08 283.45 1702.74 305.53 1668.04 326.66 1661.96 346.8 1687.54 366.94 1736.69 386.09 1793.69 404.21Q1793.72 404.22 1793.72 404.22" opacity="0.84"></path><path d="M1741.22 305.45C1785.56 322.66 1806.27 339.46 1797.52 355.87 1762.27 372.33 1710.55 388.49 1657.17 404.45 1616.97 420.58 1600.53 436.68 1611.32 452.91 1645.85 469.53 1693.02 486.53 1739 504.11 1780.57 541.25 1723.15 582.43 1617.88 629.09 1555.27 679.72 1581.47 736.1 1658.92 796.96 1711.68 856.96 1683.72 914.98 1591.42 965.33 1477.72 1013.07 1572.24 1003.46 1572.49 972.16 1498.2 967.24 1403.04 984.97 1328.17 1030.9 1297.98 1099.89 1312.44 1179.04 1348.83 1248.48 1383.84 1288.98 1390.84 1290.6 1362.82 1256.57 1304.21 1210.05 1228.45 1175.99 1151.93 1179.76 1083.71 1230.16 1033.6 1311.11 1001.24 1389.61 975.74 1353.95 943.36 1362.85 928.75 1426.23 911.95 1473.08 871.48 1467.09 848.52 1416.71 832.84 1375.81 816.37 1338.04 799.15 1310.44 781.93 1298.71 764.18 1304.48 745.86 1326.31 727.47 1360.58 708.38 1400.33 688.5 1438.3 668.37 1468.31 647.23 1484.38 624.93 1483.74 602.19 1466.68 578.09 1435.52 552.54 1395.23 500.09 1312.35 442.15 1264.4 380.58 1273.02 322.3 1327.78 268.03 1388.5 224.7 1415.84 197.38 1391.82 189.31 1322.83 201 1239.01 220.98 1173.44 241.85 1148.38 247.4 1164.07 222.35 1206.51 164.1 1247.03 79.83 1262.99 -5.81 1244.69 -67.55 1192.1 -82.5 1119.3 -52.76 1042.17 -0.57 978.04 33.06 936.02 11.73 918.89 -65.77 921.51 -165.5 934.36 -229.08 956.82 -101.25 930.13 -179.29 875.6 -281.97 826.99 -330.59 773.99 -287.42 720.34 -201.57 665.29 -160.59 613.19 -215.45 564.98 -268.08 541.23 -321.1 518.46 -360.68 496.67 -376.52 475.09 -364.31 454.37 -327.52 434.46 -277.54 414.68 -228.4 395.59 -194.88 377.16 -187.85 358.76 -209.43 340.95 -253.77 323.74 -307.95 306.52 -355.01 290.1 -381.07 274.49 -379.01 258.92 -349.02 244.23 -299.9 230.48 -223.06 210.57 -194.81 176.62 -252.88 162.92 -337.87 146.19 -343.66 134.5 -260.65 127.08 -159.93 118.26 -124.33 110.11 -171.53 99.06 -250.07 79.38 -280.34 50.27 -230.43 8.43 -130.63 -45.62 -46.3 -110.52 -24.02 -181.04 -65.21 -246.96 -125.35 -300.83 -153.6 -332.97 -125.03 -340.22 -46.46 -323.37 46.45 -291.37 118.68 -263.7 147.14 -254.08 135.62 -276.43 99.57 -333.04 68.1 -411.89 60.57 -490.19 83.19 -541.74 135.35 -550.05 204.61 -515.2 281.3 -462.1 351.23 -421.16 407.96 -422.36 450.76 -474.94 479.4 -558.07 498.83 -632.26 510.03 -660.33 519.97 -628.83 532.45 -559.25 541.77 -512.94 567.23 -502.81 583.69 -546.37 595.24 -587.74 608.25 -630.07 622.68 -666.07 637.14 -689.63 652.98 -696.28 670.2 -684.57 687.41 -656.97 705.8 -618.33 725.34 -575.71 744.91 -536.73 765.68 -507.89 787.67 -493.8 809.73 -496.77 833.04 -515.38 857.56 -545.76 882.13 -582.9 907.83 -619.43 934.5 -648.89 986.96 -669.46 1040.81 -627.88 1092.08 -546.94 1151.38 -451.04 1181.58 -528.3 1155.56 -574.44 1142.83 -547.51 1145.55 -480.09 1175.99 -397.72 1236.58 -327.83 1319.29 -291.1 1404.61 -290.94 1474.82 -337.81 1391.55 -365.79 1385.82 -296.85 1454.72 -226.91 1553.2 -154.4 1630.25 -89.91 1643.83 -38.81 1592.87 -4.85 1523.78 14.4 1504.57 20.58 1562.88 20.76 1666.66 20.43 1732.53 21.62 1592.18 62.95 1701.55 102.05 1769.21 124.81 1756.12 174.47 1684.82 200.46 1639.09 218.04 1611.67 235.66 1611.31 253.2 1639.08 270.79 1687.01 288.22 1741.19 305.44Q1741.22 305.45 1741.22 305.45" opacity="0.55"></path><path d="M1688.72 347.47C1753.36 380.09 1719.08 415.83 1620.73 454.69 1551.59 493.82 1572.41 536.47 1656.19 582.6 1722.39 628.92 1704.8 678.08 1615.79 728.72 1524.86 776.83 1498.97 822.78 1546.49 863.15 1621.34 895.06 1654.6 916.39 1615.71 924.77 1525.11 923.43 1436.45 912.17 1396.11 895.9 1417.07 885.39 1471.8 885.05 1516.36 902.85 1519.76 942.99 1470.81 1003.13 1389 1075.84 1302.71 1146.43 1241.57 1201.15 1217.45 1226.53 1243.32 1202.82 1293.11 1116.27 1251.09 1162.62 1195.64 1236.38 1130.13 1314.42 1063.96 1366.22 999.97 1372.28 945.36 1332.52 900.63 1270.2 863.89 1224.76 834.36 1223.75 808.66 1274.47 786.77 1354.07 764.57 1420.54 739.94 1436.51 716.05 1394.81 688.11 1319.63 655.49 1257.94 622.87 1251 586.35 1300.66 546.7 1373.92 507.8 1426.96 467.39 1424.94 427.76 1368.62 391.95 1288.21 361.05 1224.54 338.6 1206.49 322.49 1267.52 343.12 1340.4 350.21 1253.58 332.72 1174.34 292.63 1112.87 228.51 1085.66 150.96 1095.87 73.16 1129.84 15.24 1167.22 -7.3 1192.03 9.04 1188.53 52.57 1155.04 91.63 1097.33 99.87 1027.04 57.95 957.58 -25.12 898.02 -116.17 856.09 -171.09 832.29 -101.24 837.03 -264.08 819.18 -189.22 779.72 -118.62 745.83 -116.61 708.07 -195.4 668.8 -291.76 627.59 -322.19 587.18 -259.5 548.8 -167.6 510.08 -136.62 474.17 -201.27 441.55 -298.93 408.93 -329.67 380.38 -264.15 355.56 -164.95 330.4 -122.6 308.21 -169.38 287.9 -257.32 265.66 -299.39 242.99 -255.04 217.7 -157.07 187.21 -79.7 150.82 -74.47 106.66 -135.34 55.9 -202.91 -1.98 -218.78 -64.54 -165.36 -125.25 -71.09 -180.87 10.63 -224.4 27.37 -254.2 -78.43 -209.09 -26.33 -181.38 55.91 -190.63 140.25 -227.84 201.96 -291.16 229.26 -367.06 224.25 -437.35 201.54 -481.54 173.29 -488.3 158.39 -458.45 164.29 -408.3 191.01 -367.92 236.81 -359.79 293.7 -396.62 357.86 -468.95 420.55 -547.97 477.62 -598.52 530.51 -598.89 575.66 -550.81 614.59 -482.98 649.65 -439.25 681.52 -446.81 712.33 -506.29 742.09 -586 772.89 -638.98 805.51 -632.07 838.13 -570.38 871.79 -491.89 905.57 -443.72 938.29 -453.23 969.03 -510.09 995.49 -577.11 1018.08 -615.25 1033.36 -598.67 1039.65 -534.84 1039.39 -423.6 1033.67 -428.85 1065.17 -499.25 1112.82 -514.42 1179.72 -486.98 1258.23 -425.07 1331.22 -347.32 1384.8 -277.22 1404.18 -231.88 1369.37 -225.73 1321.09 -298.2 1420.13 -299.35 1511.09 -270.48 1573.8 -221.59 1577.85 -160.81 1530.09 -94.27 1467.43 -31.01 1443.09 23.88 1488.04 69.06 1582.19 102.86 1666.98 127.48 1657.61 149.64 1552.85 180.88 1682.19 201.7 1741.57 217.09 1708.85 237.04 1616.11 261.44 1557.02 286.12 1591.04 314.84 1688.69 347.46Q1688.72 347.47 1688.72 347.47" opacity="0.10"></path><path d="M1636.22 467.71C1699.65 498.52 1674.92 531.72 1585.18 566.81 1507.31 601.47 1503.94 637.08 1571.14 672.37 1649.95 705.62 1670.06 736.4 1613.13 762.7 1484.45 791.86 1538.85 806.13 1594.48 795.72 1555.23 790.94 1471.07 790.83 1385.36 801.09 1336.34 826.88 1339.69 868.76 1380.08 926 1429.96 991.71 1454.32 1058.41 1437.39 1114.67 1381.44 1150.09 1303.23 1158.86 1225.98 1140.59 1150.98 1088.69 1158.25 1080.55 1185.57 1171.34 1192.38 1245.65 1182.05 1301.31 1156.11 1318.44 1117.35 1294.34 1069.76 1241.3 1018.7 1186.89 964.33 1163.16 912.38 1184.75 864.66 1246.95 817.89 1322.98 775.87 1376.55 738.15 1380.4 701.05 1334.59 667.24 1262.82 636.43 1205.44 605.63 1197.19 578.55 1240.39 555.65 1308.94 533.36 1366.19 516.25 1378.44 504.92 1339.03 491.98 1231.1 479.5 1180.42 461.31 1254.89 433.86 1294.49 392.13 1297.18 334.73 1259.56 267.84 1193.03 196.71 1118.49 133.07 1057.67 82.56 1024.53 141.68 1095.87 175.2 1121.2 151.76 1109.6 88.95 1073.71 2.69 1020.1 -74.06 955.84 -111.72 891.05 -94.78 833.21 -41.14 785.82 13.15 751.95 24.92 730.09 -25.44 719.38 -116.03 714.98 -195.87 712.74 -192.87 711.93 -69.47 686.84 -177.58 659.96 -256.67 638.64 -262.37 613.68 -190.59 586.11 -106.95 557.99 -85.34 528.29 -148.77 497.48 -241.95 466.68 -278.7 435.49 -227.35 403.61 -132.3 371.17 -71.98 337.01 -91.13 300.23 -169.2 261.68 -235.43 219.26 -233.65 172.49 -161.83 123.93 -68.09 71.85 -13.14 17.95 -26.63 -33.19 -87.91 -80.85 -146.15 -120.72 -158.83 -149.46 -109.93 -164.7 -23.93 -164.79 81.15 -144.97 33.5 -108.99 -11.29 -140.96 4.21 -192.21 57.54 -259.58 132.2 -330.9 210.55 -389.72 273.01 -423.02 310.95 -422.47 319.48 -371.39 278.12 -313.74 277.32 -389.81 292.37 -465.95 320.15 -527.84 356.68 -550.34 400.15 -526.93 446.36 -469.86 492.03 -409.7 539.13 -382.18 583.02 -403.48 622.75 -466.81 662.45 -541.45 697.82 -587.8 728.62 -579.57 759.43 -522.19 784.95 -447.3 805.26 -395.38 825.54 -393.12 840.78 -437.61 851.78 -501.76 864.21 -552.08 875.07 -558.96 887.49 -517.86 906.85 -446.07 933.78 -372.97 972.11 -326.28 1021.76 -320.82 1082.89 -351.37 1151.6 -398.19 1217.38 -439.83 1273.51 -453.35 1308.96 -431.07 1318.5 -377.66 1301.91 -306.81 1267.64 -236.8 1237.06 -182.15 1226.02 -152.46 1250.87 -147.5 1313.07 -163.38 1397.48 -187.77 1475.55 -209.4 1516.87 -222.56 1507.27 -218.6 1456.22 -196.91 1402.3 -159.69 1383.24 -110.48 1423.39 -55.12 1509.1 3.7 1595.49 60.08 1631.57 111.3 1599.22 157.88 1525.54 197.71 1471.09 231.89 1486.68 261.49 1567.62 287.78 1657.58 312.63 1688.64 335.43 1637.4 358.95 1548.45 384.3 1503.16 409.22 1543.01 436.89 1636.19 467.7Q1636.22 467.71 1636.22 467.71" opacity="0.16"></path><path d="M1583.72 487.12C1645.61 516.11 1629.78 542.98 1550.05 567.4 1467.7 591.4 1442.56 612.2 1487.73 629.13 1566.57 644.9 1615.75 656.15 1598.12 662.79 1479.37 670.32 1426.52 682.58 1512.34 702.01 1535.01 727.39 1502.69 763.55 1429.25 811.24 1345.01 867.15 1284.18 928.36 1264.43 988.4 1306.46 1056 1370.8 1066.69 1312.44 1020.53 1243.55 994.16 1171.12 985.04 1108.62 1002.84 1062.86 1049.13 1037.86 1115.25 1029.74 1185.17 1050.68 1213.57 1018.81 1133.49 977.69 1221.34 945.59 1289.81 912.11 1329.66 879.13 1322.62 845.45 1274.01 813.76 1206.08 784.76 1152.94 755.77 1143.57 730.16 1180.53 707.36 1243.58 683.86 1302.84 661.7 1327.13 639.11 1304.95 613.36 1245.92 584.03 1173.82 548.64 1117.05 507.2 1095.79 457.85 1113.3 400.92 1156.64 342.03 1206.59 282.45 1238.12 228.96 1237.22 189.47 1202.41 168.25 1141.75 169.32 1072.1 201.77 989.31 240.78 975.33 176.75 1015.16 101.45 1038.04 23.41 1045.14 -31.93 1033.31 -46.41 1003.62 -17.87 958.67 36.18 904.66 79.42 845.73 83.64 788.66 35.12 737.34 -48.61 692.56 -128.14 656.46 -161.36 627.96 -99.28 597.94 -36.58 556.85 -158.12 535.96 -214.48 521.94 -197.88 504.55 -121.26 483.4 -47.27 462.26 -34.38 437.24 -96.27 408.24 -184.77 379.25 -226.41 346.97 -189.04 311.64 -101.84 276.31 -29.27 238.05 -21.2 197.39 -79.24 157.38 -154.42 116.11 -189.35 75.14 -157.79 37.29 -76.08 2.73 7.02 -25.95 36.96 -54.16 -91.93 -54.3 -62.78 -34.63 12.39 -25.32 95.04 -23.51 154.76 -35.31 174.81 -64.96 157.09 -111.87 119.63 -172.75 81.22 -238.33 64.76 -299.03 78.81 -342.88 121.95 -361.84 185.41 -353.01 255.24 -320.98 321.83 -281.51 374.15 -248.95 409.34 -240 427.59 -264.95 432.96 -320.1 431.7 -391.31 422.74 -474.1 431.43 -417.89 454.55 -340.92 474.87 -329.91 499.39 -362.73 526.45 -427.72 554.34 -496.5 583.15 -536.41 612.14 -527.07 641.14 -473.94 669.64 -403.06 698.22 -348.7 727.64 -335.91 758.76 -367.23 793.12 -424.5 830.3 -481.06 872.78 -507.44 921.41 -491.04 972.77 -437.61 1028.55 -366.1 1085.61 -301.86 1137.13 -265.15 1180.76 -264.01 1210.12 -292.05 1219.51 -355.11 1159.26 -357.14 1147.45 -275.83 1174.88 -207.96 1231.14 -146.71 1307.55 -101.4 1409.98 -74.01 1400.48 -107.8 1330.3 -128.05 1323.73 -131.05 1367.01 -120.99 1448.35 -98.77 1530.4 -66.35 1573.32 -25.81 1555 19.24 1493.16 68.07 1430.32 116.7 1415.1 163.21 1466.39 209.17 1555.41 251.64 1624.65 290.55 1627.78 328.3 1563.76 363.15 1482.3 395.62 1450.64 427.68 1495.2 458.11 1583.69 487.11Q1583.72 487.12 1583.72 487.12" opacity="0.56"></path><path d="M1531.22 376.79C1591.25 403.97 1583.55 427.53 1514.82 447.66 1432.1 467.93 1389.08 485.13 1409.66 499.85 1477.26 515.58 1542.62 530.15 1562.02 544.99 1522.06 563.09 1442.58 584.03 1365.58 609.76 1327.65 641.46 1341.8 679.87 1391.51 725.42 1447.14 775.52 1473.49 829.58 1455.08 884.01 1396.64 933.02 1318.91 973.36 1248.51 999.9 1234.64 976.74 1274.66 939.33 1206.34 1004.84 1143.48 1068.7 1080.2 1132.68 1023.89 1181.35 977.02 1203.05 943.04 1192.84 920.16 1155.38 903.65 1087.79 890.04 1101.85 878.72 1195.84 869.56 1253.62 855.57 1279.7 836.89 1263.28 817.87 1213.15 794.68 1149.4 767.49 1100.44 740.31 1090.15 709.78 1121.14 675.86 1178.08 641.59 1237.27 603.41 1270.99 561.3 1265.16 518.94 1222.16 473.42 1156.85 426.36 1092.5 382.38 1050.09 341.29 1040.85 307.1 1062.83 276.89 1127.95 294.8 1165.09 325.74 1099.1 335.43 1034.96 328.45 972.39 297.83 922.73 244.21 892.76 174.41 883.98 102.41 892.14 34.3 924.38 95.2 960.06 149.07 938.57 139.17 907.4 86.49 866.37 6.61 819.65 -67.34 768.88 -103.64 718.6 -85.63 671.16 -28.56 625.9 33.21 585.41 57.84 549.44 23.09 516.57 -55.24 487.11 -133.33 459.87 -164.4 434.33 -129.38 409.46 -52.04 384.35 11.3 359.67 16.25 333.9 -43.77 306.72 -127.39 279.54 -172.78 251.59 -148.8 223.32 -72.43 195.48 6.25 168.18 38.25 142.46 -67.57 85.91 88.65 60.6 89.19 68.9 38.06 71 -14.01 68.7 -37.39 57.98 -18.85 35.08 38.64 -0.38 114.56 -48.45 186.21 -104.85 232.78 -165.13 247.24 -221.53 183.57 -268.4 248.27 -182.38 336.51 -207.36 396.5 -259.18 448.92 -325.32 491.71 -388.38 525.57 -430.29 550.5 -438.75 569.39 -411.69 588.45 -336.52 624.72 -303.33 649.9 -388.76 667.89 -451.08 690.37 -484.83 717.55 -474.57 744.73 -425.61 775.98 -359.11 810.93 -303.59 845.74 -281.78 883.82 -299.85 924.16 -347.13 962.93 -404.09 1001.67 -444.2 1037.74 -450.87 1068.17 -421.16 1091.53 -363.26 1104.78 -295.84 1085.59 -234.53 1093.61 -323.24 1171.91 -296.69 1241.42 -250.09 1309.86 -190.93 1360.93 -129.47 1382.1 -73.34 1369.47 -30.02 1329.93 -1.94 1286.1 10.41 1258.85 10.53 1268.61 3.41 1320.29 -9.11 1398.7 -19.84 1474.08 -25.31 1514.41 -26.23 1503.35 -18.7 1449.1 -3.29 1387.99 18.08 1357.67 45.41 1383.48 76.63 1457.06 111.11 1538.99 146.89 1581.25 182.43 1559.75 218.97 1489.08 253.95 1418.07 286.62 1399.45 319.44 1447.57 349.6 1531.19 376.78Q1531.22 376.79 1531.22 376.79" opacity="0.26"></path><path d="M1478.72 301.02C1536.57 326.39 1536.16 351.44 1478.98 376.41 1399.65 401.76 1343.62 427.79 1339.98 455.18 1387.94 483.96 1455.14 515.29 1501.36 549.9 1501.05 586.71 1450.82 627.3 1374.34 671.44 1304.56 716.38 1269.64 762.75 1278.03 808.29 1320.87 849.22 1371.86 884.2 1405.17 909.91 1405.89 924.91 1369.13 927.68 1306.43 918.25 1234.31 901.79 1172.46 880.3 1133.26 859.97 1121.42 849.81 1132.86 853.43 1157.18 875.29 1186.39 915.74 1206.88 970.52 1212.21 1031.63 1201.38 1087.55 1173.37 1127.94 1132.79 1143.86 1082.79 1133.9 1029.72 1101.34 978.18 1057.04 928.33 1018.69 884.48 998.93 846.82 1008.07 813.56 1047.43 785.23 1106.76 760.12 1168.65 737.47 1213.68 715.74 1226.59 693.57 1202.5 672 1152.06 648.76 1092.8 623.39 1047.94 598.02 1036.94 571.12 1062.28 543.27 1112.67 516.03 1169.91 489.07 1210.24 463.87 1218.85 441.13 1193.17 422.46 1140.24 409.69 1076.93 409.69 1016.35 424.82 1117.52 390.32 1102.38 345.9 1062.24 287.64 1007.34 222.13 947.84 161.51 892.26 115.23 848.77 93.82 820.95 99.77 809.96 129.96 812.69 172.12 824.06 204.86 841.46 213.36 857.19 186.23 867.11 126.5 870.95 50.93 864.82 -14.53 849.23 -45.55 825.77 -31.31 795.22 19.86 760.08 77.74 720.95 111.46 680.6 97.46 640.76 36.91 600.22 -42.39 561.74 -100.14 525.88 -106.29 490.34 -57.73 457.47 16.57 427.24 68.73 397.19 66.57 369.47 8.72 344.1 -69.85 318.73 -117.84 296.31 -106.29 276.94 -42.88 257.76 35.92 241.93 86.31 229.62 82.67 217.64 32.28 209.11 -32.25 203.63 -75.05 197.43 -69.23 192.73 -16.53 187.89 60.41 179.07 128.91 166.74 163.66 148.55 155.39 122.49 115.46 88.18 67.31 45.24 32.32 -3.77 29.88 -57.26 62.53 -110.96 122.27 -158.64 192.75 -196.21 256.57 -218.47 302.05 -223.91 322.41 -212.1 320.46 -186.47 288.33 -143.61 243.29 -140.12 262.05 -206.95 292.58 -268.68 333.17 -327.7 379.03 -369.42 428.98 -383.99 477.78 -367.91 523.15 -326.98 566.89 -277.99 605.83 -237.17 640.4 -221.27 673.04 -239.66 702.6 -287.45 730.07 -349.71 756.92 -405.12 782.85 -433.05 808.22 -422.07 833.59 -377.21 857.81 -315.38 880.37 -259.91 902.32 -230.79 921.45 -236.23 936.66 -271.46 953.97 -347.17 959.08 -372.52 951.23 -297.44 949.33 -234.54 951.61 -181.3 962.74 -148.71 986.86 -141.99 1024.83 -157.8 1076.75 -187.3 1136.75 -221.99 1199.63 -248.52 1255.51 -259.02 1293.76 -250.92 1308.24 -222.88 1296.02 -179.47 1265.46 -125.88 1226.65 -69.55 1196.86 -16.79 1194.16 28.93 1224.83 63.93 1286.24 88.02 1406.64 103.06 1309.18 101.31 1371.63 112.77 1450.48 124.18 1513 139.86 1526.45 158.92 1485.86 179.38 1414.52 202.04 1356.13 226.1 1349.57 250.55 1400.12 275.64 1478.69 301.01Q1478.72 301.02 1478.72 301.02" opacity="0.35"></path><path d="M1426.22 372.64C1481.58 396.2 1487.53 422.33 1442.03 450.9 1369.3 479.53 1305.67 510.68 1280.82 544.14 1304.57 577.51 1360.67 612.81 1418.75 649.29 1451.28 684.49 1439.91 719.29 1388.91 752.06 1317.39 780.82 1251.84 804.83 1213.46 822.17 1211.87 832.86 1241.23 835.42 1284.83 829.7 1325.79 819.5 1344.89 804.74 1334.59 788.88 1296.33 778.43 1238.42 775.25 1174.26 783.6 1114.79 806.51 1070.87 843.44 1046.23 892.33 1041.18 947.22 1050.65 1001.63 1067.46 1047.01 1095.95 1079.9 1102.24 1019.54 1073.63 963.86 1044.01 944.3 1009.2 947.74 972.11 976.93 932.36 1027 893.53 1085.89 856.99 1138.08 820.27 1169.39 786.68 1170.39 756.46 1140.45 726.38 1090.83 699.51 1036.29 675.95 995.44 652.39 983.92 632.7 1003.99 616.9 1047.6 595.42 1123.28 571.6 1138.36 566.2 1065.11 560.55 1006.65 553.51 958.57 542.31 930.8 523.63 928.01 496.74 946.8 459.8 978.79 414.42 1015.67 361.27 1044.64 304.27 1057.83 251.15 1052.41 206.62 1026.9 177.97 985.64 168.89 934.06 180.46 879.6 209.05 828.9 242.35 786.1 270.85 754.91 281.29 735.66 263.78 728.19 218.45 729.31 152.95 735.44 56.24 756.87 162.93 731.89 115.12 701.54 43.75 677.32 -23.6 651.02 -56.44 623.86 -40.68 595.6 16 567.67 84.08 540.83 124.92 513.76 116.58 488.27 61.22 464.71 -12.14 441.15 -61.61 420.08 -61.19 401.27 -12 382.22 61.54 364.93 123.38 348.76 145.36 331.49 120.91 314.15 66.4 295.63 8.6 274.39 -21.65 250.25 -9.85 222.04 40.42 189.75 111.09 152.54 177.07 110.46 218.1 65.93 224.3 19.02 200.44 -27.72 158.12 -70.16 118.06 -106.35 96.06 -132.59 99.52 -147.05 131 -148.22 182.92 -136.3 245.89 -116.48 307.04 -91.42 357.03 -67.66 391.14 -54.21 407.29 -54.93 408.78 -74.03 398 -111.74 382.74 -163.54 368.69 -221.44 354.52 -293.44 378.19 -300.05 412.59 -238.53 441.75 -197.07 473.31 -171.3 505.29 -171.58 538.73 -201.03 570.73 -252.02 600.33 -310.32 630.16 -358.59 657.05 -381.07 680.61 -369.57 704.17 -328.72 723.84 -271.8 739.9 -217.51 756.19 -182.9 769.4 -176.96 780.39 -199.17 792.85 -242.26 804.92 -289.91 818.51 -326.68 836.46 -342.58 859.07 -330.69 888.44 -293.87 924.6 -240.48 968.51 -182.17 1019.31 -130.84 1072.05 -95.4 1124.87 -80.42 1171.96 -84.86 1205.44 -152.8 1126.05 -141.3 1149.36 -79.39 1199.17 -29.82 1265.46 20 1332.31 66.51 1380.71 108.54 1397.35 143.54 1377.34 171.52 1306.64 200.77 1276.13 232.31 1370.02 243.37 1455.68 253.81 1374.62 287.04 1296.76 311.32 1300.98 328.64 1352.82 349.07 1426.19 372.63Q1426.22 372.64 1426.22 372.64" opacity="0.98"></path><path d="M1373.72 485C1426.29 506.74 1437.62 529.6 1403.53 553.25 1339.92 576.65 1274.11 600.33 1233.05 623.61 1232.12 645.83 1267.95 666.59 1322.25 684.91 1372.79 700.93 1396.18 713.24 1382.93 720.97 1336.92 725.7 1272.38 725.54 1209.15 720.74 1182.62 702.26 1272.83 734.16 1239.83 786.54 1193.23 832.24 1137.51 882.39 1081.46 931.93 1030.53 974.63 991.08 1005.76 964.63 1020.65 951.19 1018.55 948.27 999.82 951.93 968.7 966.01 919.64 981.95 902.33 975.65 957.07 966.57 1010.36 952.77 1063 935.47 1102.68 916.38 1120.38 895.38 1111.21 873.52 1077.28 851.19 1029.52 828.92 979.87 807.18 942.94 785.43 931.11 764.72 946.34 744.69 983.09 724.19 1031.79 703.46 1076.84 681.54 1105.74 657.83 1111.88 631.34 1092.07 600.97 1051.3 567.57 998.69 529.44 945.31 486.68 901.6 442.54 875.07 396.46 868.55 351.34 880.05 311.98 906.02 280.23 937.36 260.16 965.97 253.09 987.05 260.17 993.79 279.99 984.66 304.93 960.81 330.78 924.34 348.88 879.87 349.67 831.08 329.94 783.21 288.44 739.9 231.25 702.81 168.16 674 113.11 653.23 79.58 640.34 75.39 633.43 101.22 630.36 168.47 632.13 200.49 633.07 118.89 626.66 29.22 615.48 61.02 575.99 150.04 549.55 179.82 530.96 166.29 510.7 113.72 488.96 45.69 467.21 -4.15 444.49 -13.31 420.72 21.31 396.71 85.22 371.18 151.09 343.82 192.79 315.68 195.91 285.13 163.3 251.99 109.55 217.92 60.08 181.35 35.37 142.82 44.73 104.76 87.36 66.51 149.64 29.78 214.29 -2.85 263.64 -30.6 287.54 -51.23 283.22 -63.99 257.56 -67.54 222.5 -61.57 177.8 -40.37 206.11 9.55 275.09 12.39 330.87 -4.14 384.31 -35.1 430.24 -78.81 466.74 -130.06 491.67 -182.48 506.52 -227.85 506.68 -178.5 536.89 -191.65 561.64 -270.38 579.5 -311.44 599.44 -328.88 621.19 -317.07 642.94 -280.14 665.96 -228.29 690.46 -176.22 715.37 -137.99 742.51 -122.4 772.43 -131.71 803.55 -162.99 838.19 -205.23 876.48 -246.26 915.62 -276.66 957.4 -286.65 1000.24 -273.7 1040.18 -240.45 1076.94 -192.62 1107.1 -139.22 1127.97 -88.7 1137.71 -48.9 1134.73 -24.15 1122.31 -16.39 1101.24 -23.31 1076.58 -40.33 1057.87 -64.19 1049.42 -87.2 1058 -104.4 1087.02 -114.19 1134.61 -112.51 1194.77 -99.39 1255.51 -76.2 1305.38 -44.27 1332.35 -6.56 1331.1 35.46 1302.84 78.44 1257.58 120.15 1214.7 160.66 1189.78 197.56 1196.35 230.52 1236.99 260.48 1300.62 286.79 1366.64 310.22 1411.53 331.36 1418.81 350.88 1385.51 369.67 1328.04 387.4 1270.53 405.46 1240.18 424.42 1253.62 443.12 1305.66 463.24 1373.69 484.99Q1373.72 485 1373.72 485" opacity="0.74"></path><path d="M1321.22 470.78C1370.71 490.71 1386.39 508.64 1363.07 524.47 1310.31 540.14 1247.29 553.43 1196.26 564.13 1173.93 574.37 1185.39 581.77 1223.37 586.27 1296.02 591.34 1312.4 593.08 1239.26 594.97 1178.79 600.54 1127.05 609.8 1093.78 624.36 1083.63 645.51 1094.68 673.39 1119.92 708.11 1152.79 747.92 1181.75 791.71 1199.48 836.71 1203.19 878.7 1189.72 914.91 1161.43 941.42 1121.31 955.88 1074.54 956.65 1026.33 943.72 978.95 921.35 937.15 892.29 902.46 862.43 874.61 840.06 854.06 829.25 839.24 834.49 829.75 857.66 823.1 895.93 817.36 943.91 811.32 1014.41 790.06 1057.9 772.04 1013.21 758.91 968.2 742.42 923.55 722.49 890.44 702.55 878.5 679.64 889.35 653.94 919.36 628.23 962.12 599.78 1005.66 568.95 1039.66 538.52 1057.63 506.47 1054.11 473.89 1030.01 443.47 990.14 414.72 941.46 389.66 892.54 383.86 859.72 419.56 923.05 382.77 903.27 338.92 876.17 285.07 841.14 228.67 801.39 179.89 758.7 146.64 716.58 136.03 677.16 148.54 640.8 180.98 609.36 223.67 582.88 260.78 560.94 281.01 543.22 274.4 528.63 238.89 517.23 182.48 507.28 120.3 497.68 71.07 489.53 50.08 480.48 64.72 469.86 108.06 459.66 165.22 447.34 214.03 432.59 233.41 417.91 215.71 400.66 166.22 380.72 103.65 360.79 54.46 338.65 37.48 314.5 58.06 290.42 109.26 264.49 172.2 237.09 225.52 210.12 252.4 182.25 246.78 154.22 212.28 127.66 164.24 102.21 120.45 79.05 94.33 59.1 96.58 43.13 126.77 32.33 177.76 26.08 237.36 25.75 292.35 31.38 330.58 64.03 247.06 67.78 245.13 27.66 262.78 -11.93 293.25 -58 332.41 -106.02 377.76 -150.09 424.19 -185.22 468.33 -206.27 509.8 -211.06 545.51 -198.73 575.31 -171.69 600.19 -137.38 620.17 -101.68 636.73 -73.06 650.09 -60.2 662.17 -66.19 674.31 -91.85 685.23 -133.54 697.6 -182.95 712.14 -229.65 726.43 -263.61 743.42 -276.49 763.35 -264.57 783.29 -231.45 805.69 -184.79 830.23 -135.84 854.51 -95.82 880.4 -72.7 907.08 -70.2 932.53 -88.41 957.38 -120.88 980.19 -159.14 1007.51 -208.52 1028.64 -206.84 1018.89 -153.17 1007.48 -105.53 992.82 -57.14 978.2 -14.02 969.76 19.65 968.95 41.09 979.82 50.16 1004.72 47.19 1043.19 35.87 1092.98 20 1147.38 1.13 1200.2 -15.28 1242.66 -26.57 1267.23 -32.77 1269.84 -30.98 1250.11 -21.41 1215.89 -5.24 1175.6 17.27 1142.38 44.42 1129.97 75.53 1143.95 108.68 1184.67 142.37 1243.07 177.15 1304.09 210.85 1349.85 242.8 1366.73 274.47 1349.38 304 1303.76 331.35 1248.52 358.25 1203.18 383.22 1186.51 406.37 1207.43 429.36 1258.63 450.83 1321.19 470.77Q1321.22 470.78 1321.22 470.78" opacity="0.45"></path><path d="M1268.72 351.15C1314.84 369.28 1333.82 385.22 1320.28 399.11 1279.3 413.11 1223.18 425.3 1168.76 435.99 1131.09 447.22 1119.34 457.55 1134.21 467.61 1170.55 479.12 1215.1 491.41 1254.3 505.37 1278.54 522.05 1279.43 541.61 1256.76 564.78 1215.08 591.43 1162.67 622.04 1109.54 656.43 1063.76 692.87 1032.36 731.26 1017.75 769.88 1020.09 805.95 1035.17 838.22 1057.3 864.15 1093.92 886.07 1120.48 867.49 1100.62 833.4 1075.11 809.09 1042.9 787.54 1006.93 773.32 967.87 771.18 929.15 782.11 892.44 806.65 856.78 842.91 824.58 886.62 795.89 931.9 769.12 972.1 745.32 1000.95 723.82 1013.33 703.49 1007.92 684.46 984.92 666.11 948.44 648.09 906.95 630.12 867.35 612 837.94 593.88 826.09 576.03 833.07 558.75 856.63 541.8 892.77 526.06 932.71 512.21 968.43 494.65 999.44 479.48 955.34 483.74 893.6 489.04 848.52 497.13 807.8 506.44 775.88 514.32 751.81 492 774.56 450.67 804.96 410.98 825.8 364.34 841.72 314.85 850.62 268.96 852.57 231.26 845.72 207.52 830.83 200.73 809.04 211.95 781.49 238.87 750.1 273.12 715.59 307.97 680.2 333.49 645.38 340 610.76 324.34 578.26 286.82 548.3 234.33 519.88 177.98 494.07 131.42 470.58 106.32 448.48 109.41 428.07 140.09 408.86 187.52 390.39 238.3 372.44 275.7 354.67 285.66 337.1 264.84 319.31 218.72 301.19 161.72 283.07 114.17 265.04 91.23 247.32 99.05 229.79 135.91 212.95 190.19 197.25 225.37 149.91 182.02 153.2 247.07 163.04 300.62 166.49 350.47 167.08 389.75 162.94 414.58 151.9 423.57 133.87 419.01 108.17 402.96 75.52 381.82 36.98 360.79 -5.24 341.67 -47.46 330.07 -86.8 327.51 -119.26 333.22 -141.59 348.08 -151.41 370.24 -147.39 398.52 -131.63 430.66 -105.68 464.44 -73.89 500.14 -43.59 534.89 -19.06 567.62 -5.85 600.01 -8.55 629.7 -27.23 656.63 -60.21 682.91 -102.92 706.8 -148.2 728.55 -187.92 750.05 -215.08 769.83 -223.9 787.96 -212.07 806.08 -182.66 822.11 -141.22 835.9 -96.15 871.24 -124.64 885.34 -100 914.57 -37.27 945.06 6.13 983.63 45.4 1028.67 77.69 1075.63 101.36 1121.66 115.74 1161.46 121.69 1196.6 115.82 1167.28 83.59 1117.76 69.37 1080.36 62.05 1120.7 76.41 1197.49 96.66 1251.8 114.11 1293.32 134 1311.38 155.37 1302.25 178.19 1268.08 201.43 1218.88 224.38 1171.6 247.86 1140.06 270.45 1135.81 291.75 1162.31 313.15 1211.69 333.02 1268.69 351.14Q1268.72 351.15 1268.72 351.15" opacity="0.13"></path><path d="M1216.22 304.26C1280.86 336.88 1245.85 371.14 1147.78 408.23 1073.37 447.46 1079.24 493.11 1145.02 546.74 1211.85 603.67 1216.93 666.36 1155.89 728.27 1061.82 778.8 983.17 811.64 946.8 817.13 971 780.98 1026.08 723.63 990.98 798.48 946.67 878.92 896.25 943.28 848.28 958.45 798.59 919.84 756.37 847.13 723.75 785.44 691.13 778.5 669.66 825.65 657.83 893.44 644.28 944.04 635.37 943.15 623.15 892.13 596.82 813.92 552.89 740.04 486.21 694.31 408.01 685.82 329.89 705.27 278.58 734.35 292.19 768.53 382.19 711.89 274.28 640.43 184.59 585.73 160.16 533.56 221.97 487.24 307.47 441.12 335.86 401.41 271.22 368.79 173.56 336.17 144.26 312.18 208.94 296.78 335.86 278 239.95 260.66 225.56 234.03 295 195.06 387.25 137.91 461.03 66.15 494.94 -34.74 437.61 -55.22 437.08 21.38 456.43 48.51 489.21 30.83 526.97 -32.33 568.38 -112.71 607.15 -166.48 639.77 -159.57 672.39 -97.88 697.32 -18.55 717.43 32.64 741.18 30.08 767.74 -15.71 804.91 -72.24 855.31 -111.11 922.34 -106.02 1001.03 -59.53 1072.16 12.83 1121.82 88.5 1129.26 148.91 1071.8 188.48 1239.81 188.64 1134.76 217.77 1082.65 242.2 1118.54 271.63 1216.19 304.25Q1216.22 304.26 1216.22 304.26" opacity="0.49"></path><path d="M1163.72 399.93C1225.61 428.92 1208.95 464.5 1129.82 505.53 1045.33 546.16 1009.99 590.84 1036.29 636.16 1100.94 676.38 1152.38 710.28 1158.1 731.39 1114.65 738.91 1038.91 729.03 961.2 703.58 900.52 676.67 869.55 653.89 862.78 649.61 875.31 675.32 890.83 728.99 899.36 799.74 905 865.62 898.2 903.69 881.19 896.91 861.41 851.74 835.86 786.07 806.87 732.94 777.88 723.57 746.8 758.38 711.91 816.32 674.24 872.08 628.28 895.04 572.4 876.16 513.62 823.25 450.35 753.14 393.13 687.41 349.88 629.29 427.62 644.98 461.56 669.37 425.65 678.78 348.21 674.91 262.3 659.49 214.75 637.33 233.58 608.46 306.88 577.09 374.82 543.91 385.61 511.85 323.72 482.86 235.22 453.87 195.11 429.31 232.19 407.81 318.35 384.5 395.85 360.62 420.52 332.53 385.19 297.7 324.66 253.83 281.91 199.73 279.36 140.77 324.37 78.9 396.13 23.92 474.4 -13.55 536.36 -26.16 574.69 -9.12 590.44 48.46 580.3 80.07 590.56 -6.59 601.91 -75.72 622.46 -116.41 651.45 -107.07 680.45 -53.94 716.51 17.6 759.84 73.97 804.33 91.95 856.94 70.39 914.8 25.76 967.96 -23.72 1015.07 -51.4 1044.34 -46.92 1050.71 -12.45 1030.38 44.7 990.11 109.61 956.35 173.06 945.71 224.57 978.44 261.74 1051.37 285.31 1137.91 299.17 1194.5 309.2 1160.61 318.15 1052.21 360.4 1163.69 399.92Q1163.72 399.93 1163.72 399.93" opacity="0.95"></path><path d="M1111.22 495.69C1169.07 521.06 1167.73 547.26 1111 572.8 1004.71 624.1 1089.7 609.35 1035.04 584.75 970.88 581.73 905.23 593.81 849.55 625.93 805.82 676.5 777.09 738.26 758.48 797.74 748.41 839.81 739.82 852.24 727.9 829.44 717.4 782.54 700.13 725.3 674.76 680.44 649.39 669.44 617.11 692.98 579.77 738.87 543.84 792.1 506.28 828.99 472.39 837.43 447.02 816.76 433.98 770.57 438.6 711.83 455.19 651.42 484.41 600.67 515.31 564.79 528.19 545.1 515.18 538.56 468.64 539.32 361.01 550.34 298.08 551.34 390.93 534.02 437.88 519.27 434.07 498.9 376.22 473.53 297.64 448.16 251.2 418.98 263.22 385.89 324.95 351.9 404.07 312.67 462.17 268.33 476.97 223.39 450.77 175.38 405.45 128.37 360.43 88.51 341.32 58.63 353.95 45.06 393.86 47.69 451.33 68.36 512.31 102.35 572.07 134.67 621.09 158.11 658.77 160.19 688.33 133.16 711.24 81.84 732.02 18.82 750.44 -36.85 771.41 -65.55 796.78 -54.57 822.15 -9.71 850.72 52.67 880.15 109.36 907.22 141.96 930.46 143.97 944.87 120.5 947.55 60.12 890.87 19.75 873.67 65.02 894.29 114.08 943.48 168.08 1014.9 220.03 1086.65 269.22 1135.61 310.96 1139.41 345.51 1099.92 375.3 1035.25 400.88 983.3 424.66 981.06 446.97 1032.62 470.31 1111.19 495.68Q1111.22 495.69 1111.22 495.69" opacity="0.76"></path><path d="M1058.72 448.95C1111.29 470.7 1121.64 487.11 1087.58 498.1 1024.84 508.7 958.1 513.41 910.86 512.56 896 512.11 912.1 508.06 946.25 503.21 987.79 504.16 1017.53 510.42 1027.32 526.09 1017.67 553.89 988.6 593.51 947.97 642.82 899.31 695.3 850.69 744.51 806.74 780.64 764.55 797.08 728.85 789.02 699 757.14 670.54 712.77 645.74 664.87 623.99 627.94 602.25 616.11 584.59 629.88 572.04 662.88 566.57 750.51 601.78 661.92 581.85 587.87 543.56 543.49 488.03 507.57 423.84 480.17 349.25 453.32 388.85 421.87 470.38 404.73 496.05 392.9 481.29 376.44 428.72 354.7 360.69 332.95 312.35 306.94 304.37 277.77 337.74 249.24 399.84 219 466.18 189.42 461.51 156.69 489.55 218.4 549.93 192.97 593.23 151.6 632.72 98.84 666.51 45.7 699.96 4.3 727.76 -13.88 749.51 -2.07 771.26 34.85 785.92 87.16 793.49 139.92 800.75 190.42 790.37 165.11 790.83 120.41 805.7 93.75 834.86 79.91 880.7 80.61 937.55 93.44 999.24 118.4 1052.06 150.97 1082.1 189.33 1080.81 229.19 1046.69 267.33 996.29 305.87 946.56 340.72 921.57 371.13 937.93 401.15 990.66 427.2 1058.69 448.94Q1058.72 448.95 1058.72 448.95" opacity="0.60"></path><path d="M1006.22 329.31C1052.34 347.43 1070.35 362.01 1056.31 373.62 1016.16 385.83 961.02 396.31 906.17 406.49 863.04 419.31 839.51 434.39 835.97 453.6 850.92 477.98 875.29 508.37 900.69 544.86 925.49 584.92 940.7 627.69 944.85 669.16 940.99 704.41 927.62 729.76 908.17 740.46 884.38 736.16 858.84 715.54 834.38 681.46 809.01 643.01 786.65 604.85 768.53 575.44 750.41 563.59 737.38 569.44 728.57 590.08 718.86 622.78 711.43 657.89 703.82 688.23 691.86 711.53 675.39 721.14 651.32 716.61 619.24 700.15 578.01 672.84 529.46 638.88 480.31 600.26 434.45 560.99 400.63 523.89 385.31 488.05 392.58 456.23 422.42 428.57 464 402.94 508.82 380.32 541.98 359.91 549.03 340.21 527.34 321.44 481.22 303.32 401.13 276.89 381.94 235.16 451.17 224.22 507.3 220.47 555.29 222.44 587.46 230.35 575.2 263.46 512.76 254 517.19 204.49 527.02 160.86 542.01 115.44 559.63 75.75 578.52 48.11 597.64 38.59 615.77 50.44 633.89 79.85 650.15 121.68 665.44 167.12 681.99 208.2 699.96 239.13 721.54 256.71 747.31 259.29 779.56 250.2 819.05 233.82 862.1 211.22 909.14 189.93 955.11 173.63 1004.96 158.7 993.64 176.16 934.93 202.13 896.59 223.36 871.68 245.85 871.15 267.81 899.36 290.38 949.19 311.17 1006.19 329.3Q1006.22 329.31 1006.22 329.31" opacity="0.11"></path><path d="M953.72 314.93C1015.61 343.92 997.25 379.87 921.05 424.11 834.55 472.39 781.43 532.34 768.86 596.29 801.23 665.74 819.75 606.64 783.91 522.94 754.91 513.57 713.36 544.08 658.08 591.16 599.44 639.14 530.32 658.65 471.88 647.21 446.45 613.91 468.81 565.73 534.06 517.64 589.01 467.04 595.61 424.89 533.72 395.9 445.22 366.91 408.2 353.81 443.67 354.16 525.04 352 607.18 354.93 658.2 350.23 674.37 323.67 669.48 273.4 665.81 204.17 657.88 135.83 666.8 93.57 695.79 102.94 724.78 156.07 771.1 228.96 829.27 288.09 908.27 315.37 916.49 266.01 830.68 260.62 816.44 266.63 865.2 285.92 953.69 314.92Q953.72 314.93 953.72 314.93" opacity="0.93"></path><path d="M901.22 427.23C953.79 448.97 962.18 479.99 928.98 516.22 869.69 550.28 804.72 584.22 752.19 609.41 714.24 622.28 692.26 616.45 677.89 588.89 669.73 551.8 657.35 507.37 635.6 470.44 613.86 458.61 584.81 469.49 555.28 494.7 531.96 530.89 520 560.58 529.45 576.44 574.43 580.55 647.39 528.01 586.22 494.58 518.19 472.84 472.88 454.76 467.11 437.68 496.73 416.69 551.84 389.88 610.9 353.7 667.62 309.34 711.13 256.58 742.06 204.45 766.92 163.31 788.2 143.61 809.95 155.44 831.69 192.37 851.85 245.61 864.68 298.64 871.44 342.14 861.87 371.04 833.66 386.67 787.07 389.98 806.11 400.26 901.19 427.22Q901.22 427.23 901.22 427.23" opacity="0.99"></path><path d="M848.72 498.97C910.61 527.96 888.74 549.39 824.68 543.97 746.26 523.11 685.54 471.07 656.55 417.94 631.66 419.55 701.43 481.24 638.72 452.41 550.22 423.42 519.53 370.6 549.28 305.03 610.87 244.04 672.97 198.57 701.96 207.94 730.95 261.07 721.36 336.61 697.77 395.48 706.02 438.9 760.22 469.98 848.72 498.97Q848.72 498.97 848.72 498.97" opacity="0.73"></path></g></svg>